<?xml version="1.0" encoding="utf-8"?>
<svg id="master-artboard" viewBox="0 0 1400 1400" version="1.1" xmlns="http://www.w3.org/2000/svg" x="0px" y="0px" style="enable-background:new 0 0 1400 1400;" width="1400px" height="1400px">

<path d="M 0 0 H 1400 V 1400 H 0 V 0 Z" class="st0" style="fill: rgb(245, 246, 247);" transform="matrix(1, 0, 0, 1, 0, -1.4210854715202004e-14)"/>
<g transform="matrix(1, 0, 0, 1, 0, -1.4210854715202004e-14)">
		<path class="st1" d="M1315.2,826c0-318.9-258.5-577.5-577.5-577.5S160.3,507,160.3,826c0,160,65.1,304.8,170.2,409.3h814.6&#10;&#9;&#9;&#9;C1250.2,1130.7,1315.2,985.9,1315.2,826z" style="fill: rgb(192, 230, 255);"/>
		<g>
			<g>
				<g>
					<g>
						<g>
							<path class="st2" d="M1215.3,957.6c0,0,15.5,99.6-67.3,111.9c0,0-27.6-19.9-0.3-53.4c6.5-7.9,14.8-14.7,24.4-20.3&#10;&#9;&#9;&#9;&#9;&#9;&#9;&#9;&#9;C1187.1,987,1213.1,966.1,1215.3,957.6z" style="fill: rgb(63, 122, 6);"/>
						</g>
					</g>
					<g>
						<g>
							<path class="st3" d="M1215.3,957.6c0,0-6.8,67.1-67.3,111.9C1148,1069.5,1225.5,1067.1,1215.3,957.6z" style="fill: rgb(54, 101, 5);"/>
						</g>
					</g>
				</g>
				<g>
					<g>
						<g>
							<path class="st4" d="M1175.3,952.6c0,0,36.3,84.5-33.2,108.9c0,0-28.7-12.9-12.5-46.6c3.8-8,9.6-15.3,16.6-21.7&#10;&#9;&#9;&#9;&#9;&#9;&#9;&#9;&#9;C1157.4,982.9,1175.3,960.4,1175.3,952.6z" style="fill: rgb(112, 190, 45);"/>
						</g>
					</g>
					<g>
						<g>
							<path class="st5" d="M1175.3,952.6c0,0,9.4,59.8-33.2,108.9C1142.1,1061.5,1209.2,1046.6,1175.3,952.6z" style="fill: rgb(84, 154, 22);"/>
						</g>
					</g>
				</g>
				<g>
					<g>
						<g>
							<path class="st2" d="M1120.9,933.1c0,0,77,83,9.9,131.8c0,0-37.5-5.4-34-48.1c0.8-10.1,4.1-20,9.2-29.4&#10;&#9;&#9;&#9;&#9;&#9;&#9;&#9;&#9;C1113.9,972.5,1124.2,941.8,1120.9,933.1z" style="fill: rgb(63, 122, 6);"/>
						</g>
					</g>
					<g>
						<g>
							<path class="st3" d="M1120.9,933.1c0,0,36.3,63.8,9.9,131.8C1130.8,1064.9,1199.3,1027.4,1120.9,933.1z" style="fill: rgb(54, 101, 5);"/>
						</g>
					</g>
				</g>
				<g>
					<g>
						<g>
							<path class="st4" d="M1075.8,961.1c0,0-36.5,85,33.4,109.5c0,0,28.8-12.9,12.5-46.9c-3.9-8.1-9.7-15.4-16.7-21.9&#10;&#9;&#9;&#9;&#9;&#9;&#9;&#9;&#9;C1093.9,991.5,1075.8,968.9,1075.8,961.1z" style="fill: rgb(112, 190, 45);"/>
						</g>
					</g>
					<g>
						<g>
							<path class="st5" d="M1075.8,961.1c0,0-9.4,60.1,33.4,109.5C1109.2,1070.6,1041.7,1055.7,1075.8,961.1z" style="fill: rgb(84, 154, 22);"/>
						</g>
					</g>
				</g>
			</g>
			<g>
				<g>
					<g>
						<path d="M 1176.0999755859375 1134.800048828125 L 1188.699951171875 1053.699951171875 L 1079.199951171875 1053.699951171875 L 1091.800048828125 1134.800048828125 Z" class="st6" style="fill: rgb(178, 94, 38);"/>
					</g>
				</g>
				<g>
					<g>
						<g>
							<path d="M 1176.0999755859375 1134.800048828125 L 1188.699951171875 1053.699951171875 L 1171.0999755859375 1053.699951171875 L 1158.5 1134.800048828125 Z" class="st7" style="fill: rgb(138, 72, 26);"/>
						</g>
					</g>
					<g>
						<g>
							<path d="M 1188.699951171875 1053.699951171875 L 1149.5 1053.699951171875 L 1118.5 1053.699951171875 L 1079.199951171875 1053.699951171875 L 1082.0999755859375 1072.300048828125 L 1185.800048828125 1072.300048828125 Z" class="st7" style="fill: rgb(138, 72, 26);"/>
						</g>
					</g>
				</g>
				<g>
					<g>
						<path d="M 1070 1049.800049 H 1198 V 1064.100049 H 1070 V 1049.800049 Z" class="st6" style="fill: rgb(178, 94, 38);"/>
					</g>
				</g>
			</g>
		</g>
		<g>
			<g>
				<g>
					<g>
						<g>
							<path class="st8" d="M1242.8,877.8H919.9c-9.8,0-17.8-7.9-17.8-17.8V621.7c0-9.8,7.9-17.8,17.8-17.8h322.9&#10;&#9;&#9;&#9;&#9;&#9;&#9;&#9;&#9;c9.8,0,17.8,7.9,17.8,17.8v238.4C1260.5,869.9,1252.6,877.8,1242.8,877.8z" style="fill: rgb(193, 193, 193);"/>
						</g>
					</g>
				</g>
				<g>
					<g>
						<g>
							<g>
								<path d="M 1193.500049 616.599976 A 6.2 6.2 0 0 1 1187.300049 622.799975 A 6.2 6.2 0 0 1 1181.100049 616.599976 A 6.2 6.2 0 0 1 1187.300049 610.399976 A 6.2 6.2 0 0 1 1193.500049 616.599976 Z" class="st9" style="fill: rgb(235, 236, 237);"/>
							</g>
						</g>
					</g>
					<g>
						<g>
							<g>
								<path d="M 1217.600024 616.599976 A 6.2 6.2 0 0 1 1211.400024 622.799975 A 6.2 6.2 0 0 1 1205.200025 616.599976 A 6.2 6.2 0 0 1 1211.400024 610.399976 A 6.2 6.2 0 0 1 1217.600024 616.599976 Z" class="st9" style="fill: rgb(235, 236, 237);"/>
							</g>
						</g>
					</g>
					<g>
						<g>
							<g>
								<path d="M 1241.7 616.599976 A 6.2 6.2 0 0 1 1235.5 622.799975 A 6.2 6.2 0 0 1 1229.3 616.599976 A 6.2 6.2 0 0 1 1235.5 610.399976 A 6.2 6.2 0 0 1 1241.7 616.599976 Z" class="st9" style="fill: rgb(235, 236, 237);"/>
							</g>
						</g>
					</g>
				</g>
				<g>
					<g>
						<g>
							<g>
								<path class="st9" d="M916.1,856.4V638.7c0-4.3,3.5-7.8,7.8-7.8h314.8c4.3,0,7.8,3.5,7.8,7.8v217.8c0,4.3-3.5,7.8-7.8,7.8&#10;&#9;&#9;&#9;&#9;&#9;&#9;&#9;&#9;&#9;H923.9C919.6,864.2,916.1,860.7,916.1,856.4z" style="fill: rgb(235, 236, 237);"/>
							</g>
						</g>
					</g>
					<g>
						<g>
							<g>
								<g>
									<g>
										<path class="st10" d="M1214.2,823.4H948.5c-1.6,0-2.8-1.3-2.8-2.8c0-1.6,1.3-2.8,2.8-2.8h265.7c1.6,0,2.8,1.3,2.8,2.8&#10;&#9;&#9;&#9;&#9;&#9;&#9;&#9;&#9;&#9;&#9;&#9;C1217,822.2,1215.7,823.4,1214.2,823.4z" style="fill: rgb(247, 188, 55);"/>
									</g>
								</g>
							</g>
							<g>
								<g>
									<g>
										<path class="st10" d="M1214.2,844.2H948.5c-1.6,0-2.8-1.3-2.8-2.8c0-1.6,1.3-2.8,2.8-2.8h265.7c1.6,0,2.8,1.3,2.8,2.8&#10;&#9;&#9;&#9;&#9;&#9;&#9;&#9;&#9;&#9;&#9;&#9;C1217,842.9,1215.7,844.2,1214.2,844.2z" style="fill: rgb(247, 188, 55);"/>
									</g>
								</g>
							</g>
						</g>
						<g>
							<g>
								<g>
									<g>
										<g>
											<path class="st11" d="M1010.6,798.3c-40.6,0-73.7-33.1-73.7-73.7c0-40.6,33-73.7,73.7-73.7c40.6,0,73.7,33.1,73.7,73.7&#10;&#9;&#9;&#9;&#9;&#9;&#9;&#9;&#9;&#9;&#9;&#9;&#9;C1084.3,765.2,1051.2,798.3,1010.6,798.3z M1010.6,656.6c-37.5,0-68,30.5-68,68c0,37.5,30.5,68,68,68&#10;&#9;&#9;&#9;&#9;&#9;&#9;&#9;&#9;&#9;&#9;&#9;&#9;c37.5,0,68-30.5,68-68C1078.6,687.1,1048.1,656.6,1010.6,656.6z" style="fill: rgb(69, 164, 229);"/>
										</g>
									</g>
								</g>
								<g>
									<g>
										<g>
											<path class="st11" d="M1051.4,707.6h-81.7c-1.6,0-2.8-1.3-2.8-2.8c0-1.6,1.3-2.8,2.8-2.8h81.7c1.6,0,2.8,1.3,2.8,2.8&#10;&#9;&#9;&#9;&#9;&#9;&#9;&#9;&#9;&#9;&#9;&#9;&#9;C1054.3,706.3,1053,707.6,1051.4,707.6z" style="fill: rgb(69, 164, 229);"/>
										</g>
									</g>
								</g>
								<g>
									<g>
										<g>
											<path class="st11" d="M1066.8,727.4H954.4c-1.6,0-2.8-1.3-2.8-2.8c0-1.6,1.3-2.8,2.8-2.8h112.4c1.6,0,2.8,1.3,2.8,2.8&#10;&#9;&#9;&#9;&#9;&#9;&#9;&#9;&#9;&#9;&#9;&#9;&#9;C1069.6,726.2,1068.4,727.4,1066.8,727.4z" style="fill: rgb(69, 164, 229);"/>
										</g>
									</g>
								</g>
								<g>
									<g>
										<g>
											<path class="st11" d="M1051.4,747.3h-81.7c-1.6,0-2.8-1.3-2.8-2.8c0-1.6,1.3-2.8,2.8-2.8h81.7c1.6,0,2.8,1.3,2.8,2.8&#10;&#9;&#9;&#9;&#9;&#9;&#9;&#9;&#9;&#9;&#9;&#9;&#9;C1054.3,746,1053,747.3,1051.4,747.3z" style="fill: rgb(69, 164, 229);"/>
										</g>
									</g>
								</g>
							</g>
							<g>
								<g>
									<g>
										<g>
											<g>
												<path class="st12" d="M1199.7,769.7h-69.4c-1.6,0-2.8-1.3-2.8-2.8c0-1.6,1.3-2.8,2.8-2.8h69.4c1.6,0,2.8,1.3,2.8,2.8&#10;&#9;&#9;&#9;&#9;&#9;&#9;&#9;&#9;&#9;&#9;&#9;&#9;&#9;C1202.6,768.4,1201.3,769.7,1199.7,769.7z" style="fill: rgb(229, 101, 94);"/>
											</g>
										</g>
									</g>
									<g>
										<g>
											<g>
												<path class="st12" d="M1222.9,785.8h-92.6c-1.6,0-2.8-1.3-2.8-2.8c0-1.6,1.3-2.8,2.8-2.8h92.6c1.6,0,2.8,1.3,2.8,2.8&#10;&#9;&#9;&#9;&#9;&#9;&#9;&#9;&#9;&#9;&#9;&#9;&#9;&#9;C1225.7,784.5,1224.5,785.8,1222.9,785.8z" style="fill: rgb(229, 101, 94);"/>
											</g>
										</g>
									</g>
								</g>
								<g>
									<g>
										<g>
											<path class="st12" d="M1166.7,741.8c-21.6,0-39.2-17.6-39.2-39.2c0-21.6,17.6-39.2,39.2-39.2c21.6,0,39.2,17.6,39.2,39.2&#10;&#9;&#9;&#9;&#9;&#9;&#9;&#9;&#9;&#9;&#9;&#9;&#9;C1205.9,724.3,1188.3,741.8,1166.7,741.8z M1166.7,669.1c-18.5,0-33.5,15-33.5,33.5c0,18.5,15,33.5,33.5,33.5&#10;&#9;&#9;&#9;&#9;&#9;&#9;&#9;&#9;&#9;&#9;&#9;&#9;c18.5,0,33.5-15,33.5-33.5C1200.2,684.1,1185.2,669.1,1166.7,669.1z" style="fill: rgb(229, 101, 94);"/>
										</g>
									</g>
								</g>
							</g>
						</g>
					</g>
				</g>
			</g>
			<g>
				<g>
					<g>
						<path class="st8" d="M360.4,733.9H76.7c-9.3,0-16.8-7.5-16.8-16.8V491.7c0-9.3,7.5-16.8,16.8-16.8h283.7&#10;&#9;&#9;&#9;&#9;&#9;&#9;&#9;c9.3,0,16.8,7.5,16.8,16.8v225.3C377.2,726.3,369.7,733.9,360.4,733.9z" style="fill: rgb(193, 193, 193);"/>
					</g>
				</g>
				<g>
					<g>
						<g>
							<path class="st9" d="M75.1,709.5V519.7c0-4.4,3.6-7.9,7.9-7.9h271c4.4,0,7.9,3.6,7.9,7.9v189.8c0,4.4-3.6,7.9-7.9,7.9H83&#10;&#9;&#9;&#9;&#9;&#9;&#9;&#9;&#9;C78.7,717.5,75.1,713.9,75.1,709.5z" style="fill: rgb(235, 236, 237);"/>
						</g>
					</g>
					<g>
						<g>
							<g>
								<g>
									<path d="M 98.099998 537 H 164.699997 V 603.599998 H 98.099998 V 537 Z" class="st11" style="fill: rgb(69, 164, 229);"/>
								</g>
							</g>
							<g>
								<g>
									<path d="M 185.199997 537 H 251.799995 V 603.599998 H 185.199997 V 537 Z" class="st10" style="fill: rgb(247, 188, 55);"/>
								</g>
							</g>
							<g>
								<g>
									<path d="M 272.299988 537 H 338.899986 V 603.599998 H 272.299988 V 537 Z" class="st12" style="fill: rgb(229, 101, 94);"/>
								</g>
							</g>
						</g>
						<g>
							<g>
								<g>
									<path d="M 98.099998 625.599976 H 164.699997 V 692.199974 H 98.099998 V 625.599976 Z" class="st12" style="fill: rgb(229, 101, 94);"/>
								</g>
							</g>
							<g>
								<g>
									<path d="M 185.199997 625.599976 H 251.799995 V 692.199974 H 185.199997 V 625.599976 Z" class="st11" style="fill: rgb(69, 164, 229);"/>
								</g>
							</g>
							<g>
								<g>
									<path d="M 272.299988 625.599976 H 338.899986 V 692.199974 H 272.299988 V 625.599976 Z" class="st10" style="fill: rgb(247, 188, 55);"/>
								</g>
							</g>
						</g>
					</g>
				</g>
				<g>
					<g>
						<g>
							<g>
								<path class="st9" d="M304.6,493.9c0,3.1-2.5,5.6-5.6,5.6c-3.1,0-5.6-2.5-5.6-5.6c0-3.1,2.5-5.6,5.6-5.6&#10;&#9;&#9;&#9;&#9;&#9;&#9;&#9;&#9;&#9;C302.1,488.3,304.6,490.8,304.6,493.9z" style="fill: rgb(235, 236, 237);"/>
							</g>
						</g>
					</g>
					<g>
						<g>
							<g>
								<path class="st9" d="M326.5,493.9c0,3.1-2.5,5.6-5.6,5.6c-3.1,0-5.6-2.5-5.6-5.6c0-3.1,2.5-5.6,5.6-5.6&#10;&#9;&#9;&#9;&#9;&#9;&#9;&#9;&#9;&#9;C324,488.3,326.5,490.8,326.5,493.9z" style="fill: rgb(235, 236, 237);"/>
							</g>
						</g>
					</g>
					<g>
						<g>
							<g>
								<path class="st9" d="M348.4,493.9c0,3.1-2.5,5.6-5.6,5.6c-3.1,0-5.6-2.5-5.6-5.6c0-3.1,2.5-5.6,5.6-5.6&#10;&#9;&#9;&#9;&#9;&#9;&#9;&#9;&#9;&#9;C345.8,488.3,348.4,490.8,348.4,493.9z" style="fill: rgb(235, 236, 237);"/>
							</g>
						</g>
					</g>
				</g>
			</g>
			<g>
				<g>
					<g>
						<g>
							<path class="st8" d="M658.1,418.5H374.4c-9.3,0-16.8-7.5-16.8-16.8V176.3c0-9.3,7.5-16.8,16.8-16.8h283.7&#10;&#9;&#9;&#9;&#9;&#9;&#9;&#9;&#9;c9.3,0,16.8,7.5,16.8,16.8v225.3C675,410.9,667.4,418.5,658.1,418.5z" style="fill: rgb(193, 193, 193);"/>
						</g>
					</g>
				</g>
				<g>
					<g>
						<g>
							<path class="st9" d="M372.8,393.1V203.3c0-4.4,3.6-7.9,7.9-7.9h271c4.4,0,7.9,3.6,7.9,7.9v189.8c0,4.4-3.6,7.9-7.9,7.9h-271&#10;&#9;&#9;&#9;&#9;&#9;&#9;&#9;&#9;C376.4,401.1,372.8,397.5,372.8,393.1z" style="fill: rgb(235, 236, 237);"/>
						</g>
					</g>
				</g>
				<g>
					<g>
						<g>
							<g>
								<g>
									<path d="M 600.899988 178.5 A 5.6 5.6 0 0 1 595.299988 184.1 A 5.6 5.6 0 0 1 589.699988 178.5 A 5.6 5.6 0 0 1 595.299988 172.9 A 5.6 5.6 0 0 1 600.899988 178.5 Z" class="st9" style="fill: rgb(235, 236, 237);"/>
								</g>
							</g>
						</g>
					</g>
					<g>
						<g>
							<g>
								<g>
									<path class="st9" d="M622.8,178.5c0,3.1-2.5,5.6-5.6,5.6c-3.1,0-5.6-2.5-5.6-5.6c0-3.1,2.5-5.6,5.6-5.6&#10;&#9;&#9;&#9;&#9;&#9;&#9;&#9;&#9;&#9;&#9;C620.3,172.9,622.8,175.4,622.8,178.5z" style="fill: rgb(235, 236, 237);"/>
								</g>
							</g>
						</g>
					</g>
					<g>
						<g>
							<g>
								<g>
									<path d="M 644.6 178.5 A 5.6 5.6 0 0 1 639 184.1 A 5.6 5.6 0 0 1 633.4 178.5 A 5.6 5.6 0 0 1 639 172.9 A 5.6 5.6 0 0 1 644.6 178.5 Z" class="st9" style="fill: rgb(235, 236, 237);"/>
								</g>
							</g>
						</g>
					</g>
				</g>
				<g>
					<g>
						<g>
							<g>
								<path d="M 391.5 212.5 H 460.099998 V 383.899994 H 391.5 V 212.5 Z" class="st12" style="fill: rgb(229, 101, 94);"/>
							</g>
						</g>
					</g>
					<g>
						<g>
							<g>
								<g>
									<path class="st12" d="M508.3,254h-36.8c-2.1,0-3.8-1.7-3.8-3.8c0-2.1,1.7-3.8,3.8-3.8h36.8c2.1,0,3.8,1.7,3.8,3.8&#10;&#9;&#9;&#9;&#9;&#9;&#9;&#9;&#9;&#9;&#9;C512.1,252.2,510.4,254,508.3,254z" style="fill: rgb(229, 101, 94);"/>
								</g>
							</g>
						</g>
						<g>
							<g>
								<g>
									<path class="st12" d="M528.7,270.5h-57.1c-2.1,0-3.8-1.7-3.8-3.8c0-2.1,1.7-3.8,3.8-3.8h57.1c2.1,0,3.8,1.7,3.8,3.8&#10;&#9;&#9;&#9;&#9;&#9;&#9;&#9;&#9;&#9;&#9;C532.5,268.8,530.8,270.5,528.7,270.5z" style="fill: rgb(229, 101, 94);"/>
								</g>
							</g>
						</g>
						<g>
							<g>
								<g>
									<g>
										<path class="st12" d="M532.5,288.2h-60.9c-2.1,0-3.8-1.7-3.8-3.8s1.7-3.8,3.8-3.8h60.9c2.1,0,3.8,1.7,3.8,3.8&#10;&#9;&#9;&#9;&#9;&#9;&#9;&#9;&#9;&#9;&#9;&#9;S534.6,288.2,532.5,288.2z" style="fill: rgb(229, 101, 94);"/>
									</g>
								</g>
							</g>
							<g>
								<g>
									<g>
										<path class="st12" d="M532.5,308.4h-60.9c-2.1,0-3.8-1.7-3.8-3.8c0-2.1,1.7-3.8,3.8-3.8h60.9c2.1,0,3.8,1.7,3.8,3.8&#10;&#9;&#9;&#9;&#9;&#9;&#9;&#9;&#9;&#9;&#9;&#9;C536.3,306.7,534.6,308.4,532.5,308.4z" style="fill: rgb(229, 101, 94);"/>
									</g>
								</g>
							</g>
							<g>
								<g>
									<g>
										<path class="st12" d="M532.5,328.5h-60.9c-2.1,0-3.8-1.7-3.8-3.8c0-2.1,1.7-3.8,3.8-3.8h60.9c2.1,0,3.8,1.7,3.8,3.8&#10;&#9;&#9;&#9;&#9;&#9;&#9;&#9;&#9;&#9;&#9;&#9;C536.3,326.8,534.6,328.5,532.5,328.5z" style="fill: rgb(229, 101, 94);"/>
									</g>
								</g>
							</g>
							<g>
								<g>
									<g>
										<path class="st12" d="M532.5,348.7h-60.9c-2.1,0-3.8-1.7-3.8-3.8c0-2.1,1.7-3.8,3.8-3.8h60.9c2.1,0,3.8,1.7,3.8,3.8&#10;&#9;&#9;&#9;&#9;&#9;&#9;&#9;&#9;&#9;&#9;&#9;C536.3,347,534.6,348.7,532.5,348.7z" style="fill: rgb(229, 101, 94);"/>
									</g>
								</g>
							</g>
						</g>
					</g>
					<g>
						<g>
							<g>
								<path class="st11" d="M564.2,375c-2.1,0-3.8-1.7-3.8-3.8V218.9c0-2.1,1.7-3.8,3.8-3.8c2.1,0,3.8,1.7,3.8,3.8v152.3&#10;&#9;&#9;&#9;&#9;&#9;&#9;&#9;&#9;&#9;C568,373.3,566.3,375,564.2,375z" style="fill: rgb(69, 164, 229);"/>
							</g>
						</g>
					</g>
					<g>
						<g>
							<g>
								<path d="M 583.200012 305.200012 H 634.000011 V 369.900009 H 583.200012 V 305.200012 Z" class="st11" style="fill: rgb(69, 164, 229);"/>
							</g>
						</g>
					</g>
					<g>
						<g>
							<g>
								<path class="st11" d="M623.9,236.7H582c-2.1,0-3.8-1.7-3.8-3.8c0-2.1,1.7-3.8,3.8-3.8h41.9c2.1,0,3.8,1.7,3.8,3.8&#10;&#9;&#9;&#9;&#9;&#9;&#9;&#9;&#9;&#9;C627.7,235,626,236.7,623.9,236.7z" style="fill: rgb(69, 164, 229);"/>
							</g>
						</g>
					</g>
					<g>
						<g>
							<g>
								<path class="st11" d="M631.5,250.9H582c-2.1,0-3.8-1.7-3.8-3.8c0-2.1,1.7-3.8,3.8-3.8h49.5c2.1,0,3.8,1.7,3.8,3.8&#10;&#9;&#9;&#9;&#9;&#9;&#9;&#9;&#9;&#9;C635.3,249.2,633.6,250.9,631.5,250.9z" style="fill: rgb(69, 164, 229);"/>
							</g>
						</g>
					</g>
					<g>
						<g>
							<g>
								<path class="st11" d="M633.9,265.2H582c-2.1,0-3.8-1.7-3.8-3.8c0-2.1,1.7-3.8,3.8-3.8h51.9c2.1,0,3.8,1.7,3.8,3.8&#10;&#9;&#9;&#9;&#9;&#9;&#9;&#9;&#9;&#9;C637.7,263.5,636,265.2,633.9,265.2z" style="fill: rgb(69, 164, 229);"/>
							</g>
						</g>
					</g>
					<g>
						<g>
							<g>
								<path class="st11" d="M637.2,279.5H582c-2.1,0-3.8-1.7-3.8-3.8c0-2.1,1.7-3.8,3.8-3.8h55.2c2.1,0,3.8,1.7,3.8,3.8&#10;&#9;&#9;&#9;&#9;&#9;&#9;&#9;&#9;&#9;C641,277.8,639.3,279.5,637.2,279.5z" style="fill: rgb(69, 164, 229);"/>
							</g>
						</g>
					</g>
				</g>
			</g>
			<g>
				<g>
					<g>
						<g>
							<path class="st8" d="M844.9,567.6h283.7c9.3,0,16.8-7.5,16.8-16.8V325.4c0-9.3-7.5-16.8-16.8-16.8H844.9&#10;&#9;&#9;&#9;&#9;&#9;&#9;&#9;&#9;c-9.3,0-16.8,7.5-16.8,16.8v225.3C828.1,560,835.6,567.6,844.9,567.6z" style="fill: rgb(193, 193, 193);"/>
						</g>
					</g>
					<g>
						<g>
							<g>
								<g>
									<path d="M 909.399988 327.600006 A 5.6 5.6 0 0 1 903.799988 333.200006 A 5.6 5.6 0 0 1 898.199988 327.600006 A 5.6 5.6 0 0 1 903.799988 322.000006 A 5.6 5.6 0 0 1 909.399988 327.600006 Z" class="st9" style="fill: rgb(235, 236, 237);"/>
								</g>
							</g>
						</g>
						<g>
							<g>
								<g>
									<path d="M 887.500024 327.600006 A 5.6 5.6 0 0 1 881.900024 333.200006 A 5.6 5.6 0 0 1 876.300025 327.600006 A 5.6 5.6 0 0 1 881.900024 322.000006 A 5.6 5.6 0 0 1 887.500024 327.600006 Z" class="st9" style="fill: rgb(235, 236, 237);"/>
								</g>
							</g>
						</g>
						<g>
							<g>
								<g>
									<path d="M 865.6 327.600006 A 5.6 5.6 0 0 1 860 333.200006 A 5.6 5.6 0 0 1 854.4 327.600006 A 5.6 5.6 0 0 1 860 322.000006 A 5.6 5.6 0 0 1 865.6 327.600006 Z" class="st9" style="fill: rgb(235, 236, 237);"/>
								</g>
							</g>
						</g>
					</g>
					<g>
						<g>
							<g>
								<path class="st9" d="M1130.2,545.8V356c0-4.4-3.6-7.9-7.9-7.9h-271c-4.4,0-7.9,3.6-7.9,7.9v189.8c0,4.4,3.6,7.9,7.9,7.9h271&#10;&#9;&#9;&#9;&#9;&#9;&#9;&#9;&#9;&#9;C1126.7,553.7,1130.2,550.1,1130.2,545.8z" style="fill: rgb(235, 236, 237);"/>
							</g>
						</g>
						<g>
							<g>
								<g>
									
										<path d="M 924.700012 386.799988 H 1017.400009 V 514.999985 H 924.700012 V 386.799988 Z" transform="matrix(-1 -1.224647e-16 1.224647e-16 -1 1942.0396 901.7803)" class="st10" style="fill: rgb(247, 188, 55);"/>
								</g>
							</g>
							<g>
								<g>
									<g>
										<path d="M 873.599976 398.299988 H 896.499975 V 421.199987 H 873.599976 V 398.299988 Z" class="st10" style="fill: rgb(247, 188, 55);"/>
									</g>
								</g>
								<g>
									<g>
										<path d="M 873.599976 439.5 H 896.499975 V 462.4 H 873.599976 V 439.5 Z" class="st11" style="fill: rgb(69, 164, 229);"/>
									</g>
								</g>
								<g>
									<g>
										<path d="M 873.599976 480.600006 H 896.499975 V 503.500006 H 873.599976 V 480.600006 Z" class="st12" style="fill: rgb(229, 101, 94);"/>
									</g>
								</g>
							</g>
							<g>
								<g>
									<g>
										<path class="st12" d="M1100,463.7h-62.8c-2.1,0-3.8-1.7-3.8-3.8c0-2.1,1.7-3.8,3.8-3.8h62.8c2.1,0,3.8,1.7,3.8,3.8&#10;&#9;&#9;&#9;&#9;&#9;&#9;&#9;&#9;&#9;&#9;&#9;C1103.8,462,1102.1,463.7,1100,463.7z" style="fill: rgb(229, 101, 94);"/>
									</g>
								</g>
								<g>
									<g>
										<path class="st12" d="M1100,485.6h-62.8c-2.1,0-3.8-1.7-3.8-3.8c0-2.1,1.7-3.8,3.8-3.8h62.8c2.1,0,3.8,1.7,3.8,3.8&#10;&#9;&#9;&#9;&#9;&#9;&#9;&#9;&#9;&#9;&#9;&#9;C1103.8,483.9,1102.1,485.6,1100,485.6z" style="fill: rgb(229, 101, 94);"/>
									</g>
								</g>
								<g>
									<g>
										<path class="st12" d="M1100,507.5h-62.8c-2.1,0-3.8-1.7-3.8-3.8c0-2.1,1.7-3.8,3.8-3.8h62.8c2.1,0,3.8,1.7,3.8,3.8&#10;&#9;&#9;&#9;&#9;&#9;&#9;&#9;&#9;&#9;&#9;&#9;C1103.8,505.8,1102.1,507.5,1100,507.5z" style="fill: rgb(229, 101, 94);"/>
									</g>
								</g>
							</g>
							<g>
								<g>
									
										<path d="M 1089.9 419.5 A 21.4 21.4 0 0 1 1068.5 440.9 A 21.4 21.4 0 0 1 1047.1 419.5 A 21.4 21.4 0 0 1 1068.5 398.1 A 21.4 21.4 0 0 1 1089.9 419.5 Z" transform="matrix(0.9734 -0.229 0.229 0.9734 -67.6595 255.8097)" class="st11" style="fill: rgb(69, 164, 229);"/>
								</g>
							</g>
						</g>
					</g>
				</g>
				<g>
					<g>
						<g>
							<g>
								<path class="st12" d="M1188.9,347.9c0-1.2,0.1-2.5,0.3-3.6l-4.3-2.5l6.3-11l4.3,2.5c1.9-1.7,4.2-3,6.7-3.9v-5.2h12.7v5.2&#10;&#9;&#9;&#9;&#9;&#9;&#9;&#9;&#9;&#9;c2.4,0.8,4.6,2.1,6.4,3.7l4.8-2.8l6.3,11l-4.7,2.7c0.3,1.3,0.4,2.6,0.4,3.9c0,1.1-0.1,2.2-0.3,3.3l4.9,2.8l-6.3,11l-4.6-2.7&#10;&#9;&#9;&#9;&#9;&#9;&#9;&#9;&#9;&#9;c-1.8,1.7-4,3-6.3,3.9v5.4h-12.7v-5c-2.5-0.8-4.8-2-6.8-3.7l-4.4,2.6l-6.3-11l4.2-2.4C1189,350.8,1188.9,349.3,1188.9,347.9&#10;&#9;&#9;&#9;&#9;&#9;&#9;&#9;&#9;&#9;z" style="fill: rgb(229, 101, 94);"/>
							</g>
						</g>
						<g>
							<g>
								<path class="st13" d="M1201.2,347.9c0,4,3.3,7.3,7.3,7.3s7.3-3.3,7.3-7.3c0-4-3.3-7.3-7.3-7.3S1201.2,343.9,1201.2,347.9z" style="fill: rgb(255, 255, 255);"/>
							</g>
						</g>
					</g>
					<g>
						<g>
							<path class="st12" d="M1072.6,323.8c0-2.9,0.3-5.8,0.8-8.6l-10.3-5.9l15-26l10.1,5.8c4.6-4,9.9-7.2,15.8-9.2v-12.4h30v12.4&#10;&#9;&#9;&#9;&#9;&#9;&#9;&#9;&#9;c5.6,1.9,10.8,4.9,15.2,8.7l11.4-6.6l15,26l-11.1,6.4c0.6,3,0.9,6.1,0.9,9.3c0,2.7-0.3,5.3-0.7,7.8l11.6,6.7l-15,26l-11-6.3&#10;&#9;&#9;&#9;&#9;&#9;&#9;&#9;&#9;c-4.3,3.9-9.4,7.1-14.9,9.2v12.9h-30v-11.9c-6-1.8-11.4-4.8-16.1-8.7l-10.5,6.1l-15-26l9.9-5.7&#10;&#9;&#9;&#9;&#9;&#9;&#9;&#9;&#9;C1073,330.6,1072.6,327.3,1072.6,323.8z" style="fill: rgb(229, 101, 94);"/>
						</g>
					</g>
					<g>
						<g>
							
								<path d="M 1138.6 323.799988 A 19.6 19.6 0 0 1 1119 343.399988 A 19.6 19.6 0 0 1 1099.4 323.799988 A 19.6 19.6 0 0 1 1119 304.199987 A 19.6 19.6 0 0 1 1138.6 323.799988 Z" transform="matrix(0.987 -0.1608 0.1608 0.987 -37.507 184.1131)" class="st13" style="fill: rgb(255, 255, 255);"/>
						</g>
					</g>
					<g>
						<g>
							<g>
								<path class="st11" d="M1141.3,384.8c0.7-1.3,1.4-2.4,2.3-3.5l-3.1-4.8l12.2-7.8l3,4.7c2.8-0.7,5.8-0.9,8.8-0.5l2.7-5.3&#10;&#9;&#9;&#9;&#9;&#9;&#9;&#9;&#9;&#9;l12.9,6.6l-2.7,5.3c2,2.1,3.5,4.5,4.6,7.1l6.3-0.3l0.7,14.5l-6.2,0.3c-0.4,1.4-1,2.8-1.7,4.2c-0.6,1.1-1.3,2.2-2,3.2&#10;&#9;&#9;&#9;&#9;&#9;&#9;&#9;&#9;&#9;l3.5,5.4l-12.2,7.8l-3.3-5.1c-2.7,0.7-5.6,1-8.4,0.6l-2.9,5.5l-12.9-6.6l2.6-5.1c-2.2-2.1-3.8-4.6-5-7.3l-5.8,0.3l-0.7-14.5&#10;&#9;&#9;&#9;&#9;&#9;&#9;&#9;&#9;&#9;l5.5-0.3C1140,387.8,1140.6,386.3,1141.3,384.8z" style="fill: rgb(69, 164, 229);"/>
							</g>
						</g>
						<g>
							<g>
								<path class="st13" d="M1153.6,391.1c-2.2,4.2-0.5,9.4,3.7,11.6s9.4,0.5,11.6-3.7c2.2-4.2,0.5-9.4-3.7-11.6&#10;&#9;&#9;&#9;&#9;&#9;&#9;&#9;&#9;&#9;S1155.8,386.9,1153.6,391.1z" style="fill: rgb(255, 255, 255);"/>
							</g>
						</g>
					</g>
				</g>
			</g>
			<g>
				<g>
					<g>
						<g>
							<path class="st8" d="M125.6,1084.3h185.9c7.1,0,12.8-5.7,12.8-12.8V856.3c0-7.1-5.7-12.8-12.8-12.8H125.6&#10;&#9;&#9;&#9;&#9;&#9;&#9;&#9;&#9;c-7.1,0-12.8,5.7-12.8,12.8v215.2C112.8,1078.5,118.5,1084.3,125.6,1084.3z" style="fill: rgb(193, 193, 193);"/>
						</g>
					</g>
				</g>
				<g>
					<g>
						<g>
							<g>
								<path class="st9" d="M171.5,854.7c0,3,2.4,5.4,5.4,5.4c3,0,5.4-2.4,5.4-5.4c0-3-2.4-5.4-5.4-5.4&#10;&#9;&#9;&#9;&#9;&#9;&#9;&#9;&#9;&#9;C174,849.2,171.5,851.6,171.5,854.7z" style="fill: rgb(235, 236, 237);"/>
							</g>
						</g>
					</g>
					<g>
						<g>
							<g>
								<path class="st9" d="M150.4,854.7c0,3,2.4,5.4,5.4,5.4s5.4-2.4,5.4-5.4c0-3-2.4-5.4-5.4-5.4S150.4,851.6,150.4,854.7z" style="fill: rgb(235, 236, 237);"/>
							</g>
						</g>
					</g>
					<g>
						<g>
							<g>
								<path class="st9" d="M129.2,854.7c0,3,2.4,5.4,5.4,5.4c3,0,5.4-2.4,5.4-5.4c0-3-2.4-5.4-5.4-5.4&#10;&#9;&#9;&#9;&#9;&#9;&#9;&#9;&#9;&#9;C131.6,849.2,129.2,851.6,129.2,854.7z" style="fill: rgb(235, 236, 237);"/>
							</g>
						</g>
					</g>
				</g>
				<g>
					<g>
						<g>
							<path class="st9" d="M316,1066.7V872.8c0-3.1-2.5-5.6-5.6-5.6H126.7c-3.1,0-5.6,2.5-5.6,5.6v193.9c0,3.1,2.5,5.6,5.6,5.6&#10;&#9;&#9;&#9;&#9;&#9;&#9;&#9;&#9;h183.7C313.5,1072.3,316,1069.8,316,1066.7z" style="fill: rgb(235, 236, 237);"/>
						</g>
					</g>
				</g>
				<g>
					<g>
						<g>
							<g>
								<path class="st11" d="M252,986.8h-66.9c-1.8,0-3.3-1.5-3.3-3.3c0-1.9,1.5-3.3,3.3-3.3H252c1.8,0,3.3,1.5,3.3,3.3&#10;&#9;&#9;&#9;&#9;&#9;&#9;&#9;&#9;&#9;C255.4,985.3,253.9,986.8,252,986.8z" style="fill: rgb(69, 164, 229);"/>
							</g>
						</g>
						<g>
							<g>
								<path class="st11" d="M278.2,1004.1H158.8c-1.8,0-3.3-1.5-3.3-3.3c0-1.9,1.5-3.3,3.3-3.3h119.4c1.8,0,3.3,1.5,3.3,3.3&#10;&#9;&#9;&#9;&#9;&#9;&#9;&#9;&#9;&#9;C281.6,1002.6,280.1,1004.1,278.2,1004.1z" style="fill: rgb(69, 164, 229);"/>
							</g>
						</g>
						<g>
							<g>
								<path class="st11" d="M279.9,1021.9H157.2c-1.8,0-3.3-1.5-3.3-3.3c0-1.8,1.5-3.3,3.3-3.3h122.7c1.8,0,3.3,1.5,3.3,3.3&#10;&#9;&#9;&#9;&#9;&#9;&#9;&#9;&#9;&#9;C283.3,1020.4,281.8,1021.9,279.9,1021.9z" style="fill: rgb(69, 164, 229);"/>
							</g>
						</g>
						<g>
							<g>
								<path class="st11" d="M282.7,1044.2H154.4c-1.8,0-3.3-1.5-3.3-3.3c0-1.9,1.5-3.3,3.3-3.3h128.3c1.8,0,3.3,1.5,3.3,3.3&#10;&#9;&#9;&#9;&#9;&#9;&#9;&#9;&#9;&#9;C286.1,1042.7,284.6,1044.2,282.7,1044.2z" style="fill: rgb(69, 164, 229);"/>
							</g>
						</g>
					</g>
					<g>
						<g>
							<g>
								<path d="M 253.299999 921.099976 A 34.799999 34.799999 0 0 1 218.5 955.899975 A 34.799999 34.799999 0 0 1 183.700001 921.099976 A 34.799999 34.799999 0 0 1 218.5 886.299976 A 34.799999 34.799999 0 0 1 253.299999 921.099976 Z" class="st11" style="fill: rgb(69, 164, 229);"/>
							</g>
						</g>
						<g>
							<g>
								<path class="st10" d="M227.7,939.4c4-2.8,6.6-7.5,6.6-12.7c0-8.7-7-15.7-15.7-15.7c-8.7,0-15.7,7-15.7,15.7&#10;&#9;&#9;&#9;&#9;&#9;&#9;&#9;&#9;&#9;c0,5.3,2.6,9.9,6.6,12.7c-4,2.3-7.4,6.1-9.7,10.8c5.4,3.5,11.9,5.6,18.8,5.6c6.9,0,13.4-2.1,18.8-5.6&#10;&#9;&#9;&#9;&#9;&#9;&#9;&#9;&#9;&#9;C235,945.5,231.7,941.7,227.7,939.4z" style="fill: rgb(247, 188, 55);"/>
							</g>
						</g>
					</g>
				</g>
			</g>
			<g>
				<g>
					<g>
						
							<path d="M 369.500011 862.700012 A 48.299999 48.299999 0 0 1 321.200012 911.000011 A 48.299999 48.299999 0 0 1 272.900013 862.700012 A 48.299999 48.299999 0 0 1 321.200012 814.400013 A 48.299999 48.299999 0 0 1 369.500011 862.700012 Z" transform="matrix(0.2353 -0.9719 0.9719 0.2353 -592.8994 971.887)" class="st12" style="fill: rgb(229, 101, 94);"/>
					</g>
				</g>
				<g>
					<g>
						<path d="M 381.70001220703125 809.9000244140625 L 320.79998779296875 868 L 306.1000061035156 844.5 L 295.29998779296875 853.2999877929688 L 310.6000061035156 877.7000122070312 L 318.29998779296875 890.0999755859375 L 328.5 880.4000244140625 L 390.29998779296875 821.5 Z" class="st10" style="fill: rgb(247, 188, 55);"/>
					</g>
				</g>
			</g>
			<g>
				<g>
					<path d="M 214.699997 812.099976 H 222.299997 V 834.999975 H 214.699997 V 812.099976 Z" class="st12" style="fill: rgb(229, 101, 94);"/>
				</g>
				<g>
					<path d="M 214.699997 777.099976 H 222.299997 V 799.999975 H 214.699997 V 777.099976 Z" class="st12" style="fill: rgb(229, 101, 94);"/>
				</g>
				<g>
					<path d="M 214.699997 742.099976 H 222.299997 V 764.999975 H 214.699997 V 742.099976 Z" class="st12" style="fill: rgb(229, 101, 94);"/>
				</g>
			</g>
			<g>
				<path d="M 214.699997 435.600006 H 222.299997 V 458.500006 H 214.699997 V 435.600006 Z" class="st12" style="fill: rgb(229, 101, 94);"/>
			</g>
			<g>
				<path d="M 214.699997 385.100006 H 222.299997 V 408.000006 H 214.699997 V 385.100006 Z" class="st12" style="fill: rgb(229, 101, 94);"/>
			</g>
			<g>
				<path d="M 214.699997 334.600006 H 222.299997 V 357.500006 H 214.699997 V 334.600006 Z" class="st12" style="fill: rgb(229, 101, 94);"/>
			</g>
			<g>
				<path d="M 313.600006 285.200012 H 336.500006 V 292.800012 H 313.600006 V 285.200012 Z" class="st12" style="fill: rgb(229, 101, 94);"/>
			</g>
			<g>
				<path d="M 263.100006 285.200012 H 286.000006 V 292.800012 H 263.100006 V 285.200012 Z" class="st12" style="fill: rgb(229, 101, 94);"/>
			</g>
			<path d="M 222.39999389648438 285.20001220703125 L 214.6999969482422 285.20001220703125 L 214.6999969482422 292.79998779296875 L 214.6999969482422 307 L 222.39999389648438 307 L 222.39999389648438 292.79998779296875 L 235.5 292.79998779296875 L 235.5 285.20001220703125 Z" class="st12" style="fill: rgb(229, 101, 94);"/>
			<g>
				<path d="M 512.5 431.399994 H 520.1 V 454.299994 H 512.5 V 431.399994 Z" class="st12" style="fill: rgb(229, 101, 94);"/>
			</g>
			<path d="M 789 488.899994 H 811.9 V 496.499994 H 789 V 488.899994 Z" class="st12" style="fill: rgb(229, 101, 94);"/>
			<path d="M 732.200012 488.899994 H 755.100012 V 496.499994 H 732.200012 V 488.899994 Z" class="st12" style="fill: rgb(229, 101, 94);"/>
			<path d="M 675.400024 488.899994 H 698.300024 V 496.499994 H 675.400024 V 488.899994 Z" class="st12" style="fill: rgb(229, 101, 94);"/>
			<path d="M 618.599976 488.899994 H 641.499975 V 496.499994 H 618.599976 V 488.899994 Z" class="st12" style="fill: rgb(229, 101, 94);"/>
			<path d="M 561.799988 488.899994 H 584.699987 V 496.499994 H 561.799988 V 488.899994 Z" class="st12" style="fill: rgb(229, 101, 94);"/>
			<path d="M 520.0999755859375 488.8999938964844 L 520.0999755859375 481.8999938964844 L 512.5 481.8999938964844 L 512.5 488.8999938964844 L 512.5 496.5 L 520.0999755859375 496.5 L 527.7999877929688 496.5 L 527.7999877929688 488.8999938964844 Z" class="st12" style="fill: rgb(229, 101, 94);"/>
			<g>
				<path d="M 1272.400024 488.299988 H 1295.300024 V 495.899988 H 1272.400024 V 488.299988 Z" class="st12" style="fill: rgb(229, 101, 94);"/>
			</g>
			<g>
				<path d="M 1221.900024 488.299988 H 1244.800024 V 495.899988 H 1221.900024 V 488.299988 Z" class="st12" style="fill: rgb(229, 101, 94);"/>
			</g>
			<g>
				<path d="M 1171.5 488.299988 H 1194.4 V 495.899988 H 1171.5 V 488.299988 Z" class="st12" style="fill: rgb(229, 101, 94);"/>
			</g>
			<path d="M 1332.5 488.29998779296875 L 1322.800048828125 488.29998779296875 L 1322.800048828125 495.8999938964844 L 1332.5 495.8999938964844 L 1332.5 503.1000061035156 L 1340.0999755859375 503.1000061035156 L 1340.0999755859375 495.8999938964844 L 1340.0999755859375 488.29998779296875 Z" class="st12" style="fill: rgb(229, 101, 94);"/>
			<g>
				<path d="M 1332.5 537 H 1340.1 V 559.9 H 1332.5 V 537 Z" class="st12" style="fill: rgb(229, 101, 94);"/>
			</g>
			<g>
				<path d="M 1332.5 593.799988 H 1340.1 V 616.699987 H 1332.5 V 593.799988 Z" class="st12" style="fill: rgb(229, 101, 94);"/>
			</g>
			<g>
				<path d="M 1332.5 650.599976 H 1340.1 V 673.499975 H 1332.5 V 650.599976 Z" class="st12" style="fill: rgb(229, 101, 94);"/>
			</g>
			<g>
				<path d="M 1332.5 707.400024 H 1340.1 V 730.300024 H 1332.5 V 707.400024 Z" class="st12" style="fill: rgb(229, 101, 94);"/>
			</g>
			<path d="M 1332.5 764.2000122070312 L 1332.5 771.4000244140625 L 1324.800048828125 771.4000244140625 L 1324.800048828125 779 L 1332.5 779 L 1340.0999755859375 779 L 1340.0999755859375 771.4000244140625 L 1340.0999755859375 764.2000122070312 Z" class="st12" style="fill: rgb(229, 101, 94);"/>
			<g>
				<path d="M 1274.300049 771.400024 H 1297.200048 V 779.000024 H 1274.300049 V 771.400024 Z" class="st12" style="fill: rgb(229, 101, 94);"/>
			</g>
		</g>
		<g>
			<path class="st11" d="M845.6,855.2c0-3.6,0.4-7.1,1-10.5l-12.5-7.2l18.3-31.6l12.3,7.1c5.5-4.9,12-8.8,19.2-11.2v-15.1h36.5v15.1&#10;&#9;&#9;&#9;&#9;c6.9,2.3,13.1,6,18.5,10.6l13.8-8l18.3,31.6l-13.5,7.8c0.7,3.7,1.1,7.5,1.1,11.4c0,3.3-0.3,6.4-0.9,9.5l14.1,8.1l-18.3,31.6&#10;&#9;&#9;&#9;&#9;l-13.3-7.7c-5.2,4.8-11.4,8.6-18.1,11.2v15.7h-36.5v-14.5c-7.3-2.2-13.9-5.9-19.6-10.6l-12.8,7.4l-18.3-31.6l12-6.9&#10;&#9;&#9;&#9;&#9;C846.1,863.5,845.6,859.4,845.6,855.2z" style="fill: rgb(69, 164, 229);"/>
			
				<path d="M 929.899975 855.200012 A 27.799999 27.799999 0 0 1 902.099976 883.000011 A 27.799999 27.799999 0 0 1 874.299976 855.200012 A 27.799999 27.799999 0 0 1 902.099976 827.400013 A 27.799999 27.799999 0 0 1 929.899975 855.200012 Z" transform="matrix(0.971 -0.2389 0.2389 0.971 -178.2049 240.2939)" class="st9" style="fill: rgb(235, 236, 237);"/>
		</g>
		<g>
			<path class="st10" d="M313.3,162.8c0-2.2,0.2-4.3,0.6-6.3l-7.5-4.4l11-19.1l7.4,4.3c3.3-3,7.3-5.3,11.6-6.8v-9.1h22v9.1&#10;&#9;&#9;&#9;&#9;c4.1,1.4,7.9,3.6,11.2,6.4l8.3-4.8l11,19.1l-8.1,4.7c0.5,2.2,0.7,4.5,0.7,6.9c0,2-0.2,3.9-0.5,5.8l8.5,4.9l-11,19.1l-8-4.6&#10;&#9;&#9;&#9;&#9;c-3.2,2.9-6.9,5.2-10.9,6.7v9.5h-22v-8.7c-4.4-1.3-8.4-3.5-11.8-6.4l-7.7,4.4l-11-19.1l7.2-4.2&#10;&#9;&#9;&#9;&#9;C313.6,167.8,313.3,165.3,313.3,162.8z" style="fill: rgb(247, 188, 55);"/>
			
				<path d="M 360.399994 162.800003 A 13 13 0 0 1 347.399994 175.800003 A 13 13 0 0 1 334.399994 162.800003 A 13 13 0 0 1 347.399994 149.800003 A 13 13 0 0 1 360.399994 162.800003 Z" transform="matrix(0.9874 -0.1584 0.1584 0.9874 -21.3932 57.0677)" class="st13" style="fill: rgb(255, 255, 255);"/>
		</g>
		<g>
			<g>
				<g>
					<path class="st14" d="M617.6,971.5L617.6,971.5c-66.6-36.2-104.9-98.2-100.8-163.1l6.6-104h94.2V971.5z" style="fill: rgb(72, 72, 73);"/>
				</g>
			</g>
			<g>
				<g>
					<path class="st15" d="M771.9,1144.3H504.1V913.6c0-28.1,22.8-50.8,50.8-50.8h166.2c28.1,0,50.8,22.8,50.8,50.8V1144.3z" style="fill: rgb(232, 232, 232);"/>
				</g>
			</g>
			<g>
				<g>
					<g>
						<path class="st16" d="M771.9,913.6c0-28.1-22.8-50.8-50.8-50.8h-38.7v281.6h89.6V913.6z" style="fill: rgb(110, 145, 229);"/>
					</g>
				</g>
				<g>
					<g>
						<path class="st16" d="M554.9,862.8c-28.1,0-50.8,22.8-50.8,50.8v230.7h89.6V862.8H554.9z" style="fill: rgb(110, 145, 229);"/>
					</g>
				</g>
			</g>
			<g>
				<g>
					<g>
						<path class="st16" d="M741.4,1187.4c-6.1,0-12.2-1.8-17.6-5.4c-14.3-9.7-18-29.2-8.3-43.6l69.7-102.4l-77-120&#10;&#9;&#9;&#9;&#9;&#9;&#9;&#9;c-9.4-14.6-5.1-34,9.5-43.3c14.6-9.4,34-5.1,43.3,9.5l88.2,137.5c6.8,10.6,6.6,24.2-0.5,34.6l-81.3,119.5&#10;&#9;&#9;&#9;&#9;&#9;&#9;&#9;C761.3,1182.6,751.4,1187.4,741.4,1187.4z" style="fill: rgb(110, 145, 229);"/>
					</g>
				</g>
			</g>
			<g>
				<g>
					<path class="st14" d="M754,703.3c0-64.1-51.9-124.6-116-124.6c-64.1,0-116,60.5-116,124.6c0,3.8,0.2,7.7,0.6,11.6h230.9&#10;&#9;&#9;&#9;&#9;&#9;&#9;C753.9,710.9,754,707,754,703.3z" style="fill: rgb(72, 72, 73);"/>
				</g>
			</g>
			<g>
				<g>
					<path class="st14" d="M658.3,971.5L658.3,971.5c66.8-36.2,105.1-98.2,101-163.1l-6.6-104h-94.3V971.5z" style="fill: rgb(72, 72, 73);"/>
				</g>
			</g>
			<g>
				<g>
					<path class="st17" d="M743.5,715.7c0,58.3-47.2,134.1-105.5,134.1c-58.3,0-105.5-75.9-105.5-134.1&#10;&#9;&#9;&#9;&#9;&#9;&#9;c0-58.3,47.2-105.5,105.5-105.5C696.3,610.2,743.5,657.5,743.5,715.7z" style="fill: rgb(255, 199, 147);"/>
				</g>
			</g>
			<g>
				<g>
					<g>
						<path class="st17" d="M726.7,730.5c4.3,8.3,15.1,10.3,24.3,4.4c9.1-5.9,13.1-17.4,8.8-25.7c-4.3-8.3-15.1-10.3-24.3-4.4&#10;&#9;&#9;&#9;&#9;&#9;&#9;&#9;C726.4,710.7,722.4,722.2,726.7,730.5z" style="fill: rgb(255, 199, 147);"/>
					</g>
				</g>
				<g>
					<g>
						<path class="st17" d="M549.3,730.5c-4.3,8.3-15.1,10.3-24.3,4.4c-9.1-5.9-13.1-17.4-8.8-25.7c4.3-8.3,15.1-10.3,24.3-4.4&#10;&#9;&#9;&#9;&#9;&#9;&#9;&#9;C549.7,710.7,553.6,722.2,549.3,730.5z" style="fill: rgb(255, 199, 147);"/>
					</g>
				</g>
			</g>
			<g>
				<g>
					<g>
						<path class="st18" d="M636,772.9c3.3-0.2,6.2-1.9,8-4.6c1.8-2.8,2.2-6.1,1-9.2l-2.7-7.2l-4.5,1.7l2.7,7.2&#10;&#9;&#9;&#9;&#9;&#9;&#9;&#9;c0.6,1.7,0.4,3.5-0.5,4.9c-1,1.5-2.5,2.4-4.3,2.5L636,772.9z" style="fill: rgb(244, 172, 113);"/>
					</g>
				</g>
			</g>
			<g>
				<g>
					<path class="st14" d="M743.6,701.4l-0.7-35.3l-33.3-51l-27.7-8.6c0.6-1.3,0.9-2,0.9-2h-7.5l-16.3-5c0,0,0.8,1.8,2.3,5h-81.4&#10;&#9;&#9;&#9;&#9;&#9;&#9;l-46.3,60.6l-1.2,36.3c83.6-24.2,122-57.7,138.7-78.4C684,645.1,707.7,678,743.6,701.4z" style="fill: rgb(72, 72, 73);"/>
				</g>
			</g>
			<g>
				<g>
					<path class="st19" d="M638,807.2c-4.8,0-9.6-0.7-14.3-2.1c-1-0.3-1.6-1.4-1.3-2.4c0.3-1,1.4-1.6,2.4-1.3&#10;&#9;&#9;&#9;&#9;&#9;&#9;c8.6,2.6,17.7,2.6,26.3,0c1-0.3,2.1,0.3,2.4,1.3c0.3,1-0.3,2.1-1.3,2.4C647.6,806.4,642.8,807.2,638,807.2z" style="fill: rgb(198, 65, 34);"/>
				</g>
			</g>
			<g>
				<g>
					<path class="st17" d="M638,895.2L638,895.2c-11.7,0-21.1-9.5-21.1-21.1v-37.2h42.3v37.2C659.2,885.8,649.7,895.2,638,895.2z" style="fill: rgb(255, 199, 147);"/>
				</g>
			</g>
			<g>
				<g>
					<g>
						<g>
							<g>
								<path class="st14" d="M553.1,707.6c-0.9,0-1.9-0.2-2.7-0.7l-11.7-5.8c-3-1.5-4.3-5.2-2.7-8.2c1.5-3,5.2-4.3,8.2-2.7&#10;&#9;&#9;&#9;&#9;&#9;&#9;&#9;&#9;&#9;l11.7,5.8c3,1.5,4.3,5.2,2.7,8.2C557.5,706.4,555.3,707.6,553.1,707.6z" style="fill: rgb(72, 72, 73);"/>
							</g>
						</g>
					</g>
					<g>
						<g>
							<g>
								<path class="st14" d="M725.7,707.6c-2.3,0-4.4-1.2-5.5-3.4c-1.5-3-0.3-6.7,2.7-8.2l11.7-5.8c3-1.5,6.7-0.3,8.2,2.7&#10;&#9;&#9;&#9;&#9;&#9;&#9;&#9;&#9;&#9;c1.5,3,0.3,6.7-2.7,8.2l-11.7,5.8C727.6,707.4,726.7,707.6,725.7,707.6z" style="fill: rgb(72, 72, 73);"/>
							</g>
						</g>
					</g>
				</g>
				<g>
					<g>
						<g>
							<path class="st14" d="M655.7,711.3c-0.5,0-1.1-0.1-1.6-0.3c-9.5-3.5-19.9-3.5-29.3,0c-2.4,0.9-5-0.3-5.9-2.7&#10;&#9;&#9;&#9;&#9;&#9;&#9;&#9;&#9;c-0.9-2.4,0.3-5,2.7-5.9c11.5-4.3,24.2-4.3,35.7,0c2.4,0.9,3.6,3.5,2.7,5.9C659.3,710.1,657.5,711.3,655.7,711.3z" style="fill: rgb(72, 72, 73);"/>
						</g>
					</g>
				</g>
				<g>
					<g>
						<g>
							<g>
								<g>
									<path class="st14" d="M573,753.6c-10.9,0-20-8.2-21.1-19.1l-2.6-27.3c-0.7-7.3,4.4-14,11.7-15.2&#10;&#9;&#9;&#9;&#9;&#9;&#9;&#9;&#9;&#9;&#9;c10.5-1.7,21.1-2.6,31.6-2.6c10.5,0,21.1,0.9,31.5,2.6c7.3,1.2,12.5,7.9,11.7,15.3l-2.3,21.3c-1.6,14.2-13.5,25-27.9,25&#10;&#9;&#9;&#9;&#9;&#9;&#9;&#9;&#9;&#9;&#9;H573z" style="fill: rgb(72, 72, 73);"/>
								</g>
							</g>
						</g>
						<g>
							<g>
								<g>
									<path class="st13" d="M605.6,747.5H573c-7.7,0-14.2-5.9-14.9-13.6l-2.6-27.3c-0.4-4.1,2.5-7.8,6.5-8.5l0.1,0&#10;&#9;&#9;&#9;&#9;&#9;&#9;&#9;&#9;&#9;&#9;c20.2-3.3,40.8-3.3,61.1,0l0,0c4.1,0.7,7,4.5,6.5,8.6l-2.3,21.2C626.2,739.1,616.8,747.5,605.6,747.5z" style="fill: rgb(255, 255, 255);"/>
								</g>
							</g>
						</g>
					</g>
					<g>
						<g>
							<g>
								<g>
									<path class="st14" d="M673.2,753.6c-14.3,0-26.3-10.7-27.9-25l-2.3-21.2c-0.8-7.4,4.3-14.1,11.7-15.3&#10;&#9;&#9;&#9;&#9;&#9;&#9;&#9;&#9;&#9;&#9;c10.4-1.7,21-2.6,31.5-2.6c10.5,0,21.1,0.9,31.5,2.6c7.3,1.2,12.5,7.9,11.8,15.2l-2.6,27.3c-1.1,10.9-10.1,19.1-21.1,19.1&#10;&#9;&#9;&#9;&#9;&#9;&#9;&#9;&#9;&#9;&#9;H673.2z" style="fill: rgb(72, 72, 73);"/>
								</g>
							</g>
						</g>
						<g>
							<g>
								<g>
									<path class="st13" d="M673.2,747.5h32.6c7.7,0,14.2-5.9,14.9-13.6l2.6-27.3c0.4-4.1-2.5-7.8-6.5-8.5l-0.1,0&#10;&#9;&#9;&#9;&#9;&#9;&#9;&#9;&#9;&#9;&#9;c-20.2-3.3-40.8-3.3-61.1,0l0,0c-4.1,0.7-7,4.5-6.5,8.6l2.3,21.2C652.7,739.1,662,747.5,673.2,747.5z" style="fill: rgb(255, 255, 255);"/>
								</g>
							</g>
						</g>
					</g>
				</g>
			</g>
			<g>
				<g>
					<g>
						<path class="st20" d="M608.4,725.8c0,4.5-2.5,8.1-5.5,8.1c-3,0-5.5-3.6-5.5-8.1s2.5-8.1,5.5-8.1&#10;&#9;&#9;&#9;&#9;&#9;&#9;&#9;C606,717.7,608.4,721.4,608.4,725.8z" style="fill: rgb(51, 51, 51);"/>
					</g>
				</g>
				<g>
					<g>
						<path class="st20" d="M696.6,725.8c0,4.5-2.5,8.1-5.5,8.1c-3,0-5.5-3.6-5.5-8.1s2.5-8.1,5.5-8.1&#10;&#9;&#9;&#9;&#9;&#9;&#9;&#9;C694.1,717.7,696.6,721.4,696.6,725.8z" style="fill: rgb(51, 51, 51);"/>
					</g>
				</g>
			</g>
			<g>
				<g>
					<path class="st17" d="M565.9,1116.1l17.4,13.6c7.5,5.8,16.4,9.4,25.8,10.3l0,0c1.3,0.1,34.7,0.3,36.8-0.6l4.9-2.1&#10;&#9;&#9;&#9;&#9;&#9;&#9;c0.9-0.4,1.8-0.9,2.5-1.5l5.3-4c2.7-2,3.4-5.8,1.5-8.6l-5.5-8.5c-1.1-1.7-2.5-3.3-4-4.7l-7.7-6.9c-3.3-3-7.3-5.1-11.6-6.2&#10;&#9;&#9;&#9;&#9;&#9;&#9;l-26.8-6.8L573,1088L565.9,1116.1z" style="fill: rgb(255, 199, 147);"/>
				</g>
			</g>
		</g>
		<g>
			<g>
				<g>
					<path class="st21" d="M1028.2,1109H762.4c-7.1,0-12.4-6.4-11.1-13.3l30.4-166.9c1.4-7.6,8-13.1,15.8-13.1h256.2&#10;&#9;&#9;&#9;&#9;&#9;&#9;c10,0,17.6,9.1,15.8,18.9l-30.1,165.2C1038.3,1105.1,1033.7,1109,1028.2,1109z" style="fill: rgb(174, 183, 183);"/>
				</g>
			</g>
			<g>
				<g>
					<path d="M 930.500025 1012.400024 A 20.1 20.1 0 0 1 910.400024 1032.500025 A 20.1 20.1 0 0 1 890.300024 1012.400024 A 20.1 20.1 0 0 1 910.400024 992.300024 A 20.1 20.1 0 0 1 930.500025 1012.400024 Z" class="st13" style="fill: rgb(255, 255, 255);"/>
				</g>
			</g>
		</g>
		<g>
			<g>
				<path d="M 267.399994 1188.199951 H 1208.100006 V 1310.399948 H 267.399994 V 1188.199951 Z" class="st7" style="fill: rgb(138, 72, 26);"/>
			</g>
		</g>
		<path d="M 267.3999938964844 1188.199951171875 L 267.3999938964844 1225.699951171875 L 1164.699951171875 1225.699951171875 L 1164.699951171875 1310.4000244140625 L 1208.0999755859375 1310.4000244140625 L 1208.0999755859375 1188.199951171875 Z" class="st22" style="fill: rgb(104, 47, 9);"/>
		<g>
			<g>
				<path class="st6" d="M1220.7,1200H254.8c-11.5,0-20.7-9.3-20.7-20.7v-23.5c0-11.5,9.3-20.7,20.7-20.7h965.8&#10;&#9;&#9;&#9;&#9;&#9;c11.5,0,20.7,9.3,20.7,20.7v23.5C1241.4,1190.7,1232.1,1200,1220.7,1200z" style="fill: rgb(178, 94, 38);"/>
			</g>
		</g>
		<path class="st16" d="M503,1081.8h-4.6c-5.3,0-8.1-5.5-5.4-10.4l13.5-24.3l22.8-178.7c0,0-78.4,63.3-135.5,244.2&#10;&#9;&#9;&#9;c-3.8,12.1,5.5,23.1,17.7,23.1h85.8h115.5l0.7-54H503z" style="fill: rgb(110, 145, 229);"/>
		<g>
			<g>
				<g>
					<g>
						<path class="st12" d="M303.5,1135H348c12.4,0,22.5-10.1,22.5-22.5v-63.8c0-9.9-8-17.9-17.9-17.9h-53.7&#10;&#9;&#9;&#9;&#9;&#9;&#9;&#9;c-9.9,0-17.9,8-17.9,17.9v63.8C281,1124.9,291,1135,303.5,1135z" style="fill: rgb(229, 101, 94);"/>
					</g>
				</g>
			</g>
			<g>
				<g>
					<g>
						<path class="st12" d="M357.4,1052.1h10.6c15.4,0,27.9,12.5,27.9,27.9c0,15.4-12.5,27.9-27.9,27.9h-10.6V1052.1z M369.8,1095.4&#10;&#9;&#9;&#9;&#9;&#9;&#9;&#9;c7.7-0.9,13.8-7.5,13.8-15.4c0-8-6-14.6-13.8-15.4V1095.4z" style="fill: rgb(229, 101, 94);"/>
					</g>
				</g>
			</g>
		</g>
		<g>
			<path class="st23" d="M1031.6,1108.6H650.4c-6.3,0-11.4,5.1-11.4,11.4v3.7c0,6.3,5.1,11.4,11.4,11.4h381.2&#10;&#9;&#9;&#9;&#9;c6.3,0,11.4-5.1,11.4-11.4v-3.7C1043,1113.7,1037.9,1108.6,1031.6,1108.6z" style="fill: rgb(129, 132, 132);"/>
			<path class="st24" d="M1031.6,1108.6H750c6.3,0,11.4,5.1,11.4,11.4v3.7c0,6.3-5.1,11.4-11.4,11.4h281.7c6.3,0,11.4-5.1,11.4-11.4&#10;&#9;&#9;&#9;&#9;v-3.7C1043,1113.7,1037.9,1108.6,1031.6,1108.6z" style="fill: rgb(157, 165, 165);"/>
		</g>
	</g>
</svg>