<?xml version="1.0" encoding="utf-8"?>
<svg id="master-artboard" viewBox="0 0 1400 1400" version="1.1" xmlns="http://www.w3.org/2000/svg" x="0px" y="0px" style="enable-background:new 0 0 1400 1400;" width="1400px" height="1400px">

<path d="M 0 0 H 1400 V 1400 H 0 V 0 Z" class="st0" style="fill: rgb(255, 255, 255);" transform="matrix(1, 0, 0, 1, 0, -1.4210854715202004e-14)"/><path class="st1" d="M476.5,1127.5c-22.2,0-40.3-18.1-40.3-40.3v-61H447v61c0,16.3,13.2,29.5,29.5,29.5&#10;&#9;&#9;&#9;c16.3,0,29.5-13.2,29.5-29.5v-252h10.8v252C516.7,1109.4,498.7,1127.5,476.5,1127.5z" style="fill: rgb(48, 46, 44);" transform="matrix(1, 0, 0, 1, 0, -2.842170943040401e-14)"/><path class="st2" d="M238.6,673.5h-47.8c-1.8,0-3.4,1.5-3.4,3.4v513c0,15,12.3,27.3,27.3,27.3h0c15,0,27.3-12.3,27.3-27.3v-513&#10;&#9;&#9;&#9;&#9;C241.9,675,240.4,673.5,238.6,673.5z" style="fill: rgb(219, 146, 66);" transform="matrix(1, 0, 0, 1, 0, -2.842170943040401e-14)"/><path class="st2" d="M1216.3,673.5h-47.8c-1.8,0-3.4,1.5-3.4,3.4v513c0,15,12.3,27.3,27.3,27.3h0c15,0,27.3-12.3,27.3-27.3v-513&#10;&#9;&#9;&#9;&#9;C1219.7,675,1218.2,673.5,1216.3,673.5z" style="fill: rgb(219, 146, 66);" transform="matrix(1, 0, 0, 1, 0, -2.842170943040401e-14)"/><path class="st3" d="M241.9,676.8v254.7h-31.9c-7.9,0-15.5-1.2-22.7-3.5V676.8c0-1.9,1.5-3.4,3.4-3.4h47.8&#10;&#9;&#9;&#9;&#9;C240.4,673.5,241.9,675,241.9,676.8z" style="fill: rgb(198, 115, 32);" transform="matrix(1, 0, 0, 1, 0, -2.842170943040401e-14)"/><path class="st3" d="M1219.7,676.8v251.2c-7.2,2.3-14.8,3.5-22.7,3.5h-31.9V676.8c0-1.9,1.5-3.4,3.4-3.4h47.8&#10;&#9;&#9;&#9;&#9;C1218.2,673.5,1219.7,675,1219.7,676.8z" style="fill: rgb(198, 115, 32);" transform="matrix(1, 0, 0, 1, 0, -2.842170943040401e-14)"/><path class="st2" d="M1152.6,524.1H254.5c-36.9,0-67.1,30.2-67.1,67.1v249.4c0,36.9,30.2,67.1,67.1,67.1h898.2&#10;&#9;&#9;&#9;&#9;c36.9,0,67.1-30.2,67.1-67.1V591.2C1219.7,554.3,1189.5,524.1,1152.6,524.1z" style="fill: rgb(219, 146, 66);" transform="matrix(1, 0, 0, 1, 0, -2.842170943040401e-14)"/><path class="st4" d="M1152.6,472.3H254.5c-36.9,0-67.1,30.2-67.1,67.1v249.4c0,36.9,30.2,67.1,67.1,67.1h898.2&#10;&#9;&#9;&#9;&#9;c36.9,0,67.1-30.2,67.1-67.1V539.4C1219.7,502.5,1189.5,472.3,1152.6,472.3z" style="fill: rgb(232, 171, 98);" transform="matrix(1, 0, 0, 1, 0, -2.842170943040401e-14)"/><path class="st2" d="M961.1,378.8V240.3c0-3.9-1-7.6-2.8-10.8c-0.7-1.3-1.5-2.5-2.4-3.6c-0.2-0.3-0.5-0.6-0.7-0.8&#10;&#9;&#9;&#9;c-0.5-0.5-1-1.1-1.5-1.5c-0.5-0.5-1.1-1-1.7-1.4c-3.8-2.8-8.5-4.5-13.6-4.5H501c-5.1,0-9.8,1.7-13.6,4.5c-0.3,0.2-0.6,0.4-0.9,0.7&#10;&#9;&#9;&#9;c-0.4,0.3-0.8,0.7-1.2,1.1c-0.4,0.4-0.8,0.8-1.2,1.2c-0.2,0.3-0.5,0.5-0.7,0.8c-0.5,0.6-0.9,1.1-1.3,1.7c-0.4,0.6-0.8,1.2-1.1,1.9&#10;&#9;&#9;&#9;c-1.8,3.2-2.7,6.9-2.7,10.8v138.5H961.1z" style="fill: rgb(219, 146, 66);" transform="matrix(1, 0, 0, 1, 0, -2.842170943040401e-14)"/><path class="st2" d="M849.3,624.1l-10.2-36c-2.8-10-12-16.9-22.4-16.9h-37.3l-1-9.1H666.5l-1,9.1h-42.8&#10;&#9;&#9;&#9;c-10.4,0-19.5,6.9-22.4,16.9l-10.2,36c-1.3,4.5-1.1,8.9,0.1,13l-0.1,0.3c-4.2,14.8,6.9,29.6,22.4,29.6H827&#10;&#9;&#9;&#9;c15.4,0,26.6-14.8,22.4-29.6l-0.1-0.3C850.5,633.1,850.6,628.6,849.3,624.1z" style="fill: rgb(219, 146, 66);" transform="matrix(1, 0, 0, 1, 0, -2.842170943040401e-14)"/><path class="st5" d="M458.2,953.8H311.5c-11.3,0-20.5,9.2-20.5,20.5v42.5c0,11.3,9.2,20.5,20.5,20.5h146.7&#10;&#9;&#9;&#9;c11.3,0,20.5-9.2,20.5-20.5v-42.5C478.7,963.1,469.5,953.8,458.2,953.8z" style="fill: rgb(239, 232, 225);" transform="matrix(1, 0, 0, 1, 0, -2.842170943040401e-14)"/><path class="st6" d="M909.6,599.1h-17.5c-12.4,0-22.6,10.2-22.6,22.6v49.7c0,12.4,10.2,22.6,22.6,22.6h17.5&#10;&#9;&#9;&#9;&#9;c12.4,0,22.6-10.2,22.6-22.6v-49.7C932.2,609.3,922.1,599.1,909.6,599.1z" style="fill: rgb(219, 211, 204);" transform="matrix(1, 0, 0, 1, 0, -2.842170943040401e-14)"/><path class="st5" d="M909.6,588.5h-17.5c-12.4,0-22.6,10.2-22.6,22.6v49.7c0,12.4,10.2,22.6,22.6,22.6h17.5&#10;&#9;&#9;&#9;&#9;&#9;c12.4,0,22.6-10.2,22.6-22.6v-49.7C932.2,598.7,922.1,588.5,909.6,588.5z" style="fill: rgb(239, 232, 225);" transform="matrix(1, 0, 0, 1, 0, -2.842170943040401e-14)"/><path class="st6" d="M903.2,600.9h-4.6c-1.4,0-2.5,1.1-2.5,2.5v24.5c0,1.4,1.1,2.5,2.5,2.5h4.6c1.4,0,2.5-1.1,2.5-2.5v-24.5&#10;&#9;&#9;&#9;&#9;&#9;C905.8,602,904.6,600.9,903.2,600.9z" style="fill: rgb(219, 211, 204);" transform="matrix(1, 0, 0, 1, 0, -2.842170943040401e-14)"/><path class="st5" d="M703,407h-67.5" style="fill: rgb(239, 232, 225);" transform="matrix(1, 0, 0, 1, 0, -2.842170943040401e-14)"/><g transform="matrix(1, 0, 0, 1, 0, -2.842170943040401e-14)">
				<path class="st7" d="M849.3,621.7l-10.2-36c-2.8-10-12-16.9-22.4-16.9H622.6c-10.4,0-19.5,6.9-22.4,16.9l-10.2,36&#10;&#9;&#9;&#9;&#9;&#9;c-4.2,14.8,6.9,29.6,22.4,29.6H827C842.4,651.3,853.5,636.6,849.3,621.7z" style="fill: rgb(219, 206, 195);"/>
				<path class="st5" d="M849.3,608.5l-10.2-36c-2.8-10-12-16.9-22.4-16.9H622.6c-10.4,0-19.5,6.9-22.4,16.9l-10.2,36&#10;&#9;&#9;&#9;&#9;&#9;c-4.2,14.8,6.9,29.6,22.4,29.6H827C842.4,638.1,853.5,623.3,849.3,608.5z" style="fill: rgb(239, 232, 225);"/>
				<path class="st7" d="M772.4,492.8h-99.9l-10.7,95c-0.4,3.4,2.3,6.4,5.7,6.4h109.8c3.4,0,6.1-3,5.7-6.4L772.4,492.8z" style="fill: rgb(219, 206, 195);"/>
			</g><path class="st5" d="M938.4,201.9H501c-12.5,0-22.7,10.2-22.7,22.7v282.4c0,12.5,10.2,22.7,22.7,22.7h437.4&#10;&#9;&#9;&#9;&#9;&#9;c12.5,0,22.7-10.2,22.7-22.7V224.6C961.1,212.2,950.9,201.9,938.4,201.9z" style="fill: rgb(239, 232, 225);" transform="matrix(1, 0, 0, 1, 0, -2.842170943040401e-14)"/><path class="st1" d="M961.1,489.3V224.6c0-12.5-10.2-22.7-22.7-22.7H501c-12.5,0-22.7,10.2-22.7,22.7v264.6H961.1z" style="fill: rgb(48, 46, 44);" transform="matrix(1, 0, 0, 1, 0, -2.842170943040401e-14)"/><path class="st8" d="M500.5,450.3V241.9c0-7.7,6.3-14,14-14h410.3c7.7,0,14,6.3,14,14v208.4c0,7.7-6.3,14-14,14H514.5&#10;&#9;&#9;&#9;&#9;&#9;C506.8,464.3,500.5,458,500.5,450.3z" style="fill: rgb(119, 192, 237);" transform="matrix(1, 0, 0, 1, 0, -2.842170943040401e-14)"/><path d="M 727.3 509.700012 A 9.8 9.8 0 0 1 717.5 519.500012 A 9.8 9.8 0 0 1 707.7 509.700012 A 9.8 9.8 0 0 1 717.5 499.900012 A 9.8 9.8 0 0 1 727.3 509.700012 Z" class="st1" style="fill: rgb(48, 46, 44);" transform="matrix(1, 0, 0, 1, 0, -2.842170943040401e-14)"/><path class="st0" d="M838,253.4H602.4c-2,0-3.6,1.6-3.6,3.6v177.7c0,2,1.6,3.6,3.6,3.6H838c2,0,3.6-1.6,3.6-3.6V257&#10;&#9;&#9;&#9;&#9;&#9;C841.6,255,839.9,253.4,838,253.4z" style="fill: rgb(255, 255, 255);" transform="matrix(1, 0, 0, 1, 0, -2.842170943040401e-14)"/><path class="st5" d="M841.6,285.1V257c0-2-1.6-3.6-3.6-3.6H602.4c-2,0-3.6,1.6-3.6,3.6v28.1H841.6z" style="fill: rgb(239, 232, 225);" transform="matrix(1, 0, 0, 1, 0, -2.842170943040401e-14)"/><path class="st9" d="M623.3,276.4h-6c-2.5,0-4.5-2-4.5-4.5v-6c0-2.5,2-4.5,4.5-4.5h6c2.5,0,4.5,2,4.5,4.5v6&#10;&#9;&#9;&#9;&#9;&#9;&#9;C627.8,274.4,625.8,276.4,623.3,276.4z" style="fill: rgb(249, 187, 35);" transform="matrix(1, 0, 0, 1, 0, -2.842170943040401e-14)"/><path class="st10" d="M651.2,276.4h-6c-2.5,0-4.5-2-4.5-4.5v-6c0-2.5,2-4.5,4.5-4.5h6c2.5,0,4.5,2,4.5,4.5v6&#10;&#9;&#9;&#9;&#9;&#9;&#9;C655.7,274.4,653.7,276.4,651.2,276.4z" style="fill: rgb(119, 204, 46);" transform="matrix(1, 0, 0, 1, 0, -2.842170943040401e-14)"/><path class="st11" d="M680,276.4h-6c-2.5,0-4.5-2-4.5-4.5v-6c0-2.5,2-4.5,4.5-4.5h6c2.5,0,4.5,2,4.5,4.5v6&#10;&#9;&#9;&#9;&#9;&#9;&#9;C684.4,274.4,682.4,276.4,680,276.4z" style="fill: rgb(252, 73, 73);" transform="matrix(1, 0, 0, 1, 0, -2.842170943040401e-14)"/><path class="st10" d="M756.1,312.8H638.1c-1.6,0-2.9,1.3-2.9,2.9v1.9c0,1.6,1.3,2.9,2.9,2.9h118.1c1.6,0,2.9-1.3,2.9-2.9v-1.9&#10;&#9;&#9;&#9;&#9;&#9;&#9;C759,314.1,757.7,312.8,756.1,312.8z" style="fill: rgb(119, 204, 46);" transform="matrix(1, 0, 0, 1, 0, -2.842170943040401e-14)"/><path class="st9" d="M748.2,330.9H638.1c-1.6,0-2.9,1.3-2.9,2.9v1.9c0,1.6,1.3,2.9,2.9,2.9h110.1c1.6,0,2.9-1.3,2.9-2.9v-1.9&#10;&#9;&#9;&#9;&#9;&#9;&#9;C751.1,332.2,749.8,330.9,748.2,330.9z" style="fill: rgb(249, 187, 35);" transform="matrix(1, 0, 0, 1, 0, -2.842170943040401e-14)"/><path class="st11" d="M748.2,399.5H638.1c-1.6,0-2.9,1.3-2.9,2.9v1.9c0,1.6,1.3,2.9,2.9,2.9h110.1c1.6,0,2.9-1.3,2.9-2.9v-1.9&#10;&#9;&#9;&#9;&#9;&#9;&#9;C751.1,400.8,749.8,399.5,748.2,399.5z" style="fill: rgb(252, 73, 73);" transform="matrix(1, 0, 0, 1, 0, -2.842170943040401e-14)"/><path class="st11" d="M779.1,347.3h-141c-1.6,0-2.9,1.3-2.9,2.9v1.9c0,1.6,1.3,2.9,2.9,2.9h141c1.6,0,2.9-1.3,2.9-2.9v-1.9&#10;&#9;&#9;&#9;&#9;&#9;&#9;C781.9,348.5,780.6,347.3,779.1,347.3z" style="fill: rgb(252, 73, 73);" transform="matrix(1, 0, 0, 1, 0, -2.842170943040401e-14)"/><path class="st10" d="M776.8,381.1H638.1c-1.6,0-2.9,1.3-2.9,2.9v1.9c0,1.6,1.3,2.9,2.9,2.9h138.7c1.6,0,2.9-1.3,2.9-2.9V384&#10;&#9;&#9;&#9;&#9;&#9;&#9;C779.7,382.4,778.4,381.1,776.8,381.1z" style="fill: rgb(119, 204, 46);" transform="matrix(1, 0, 0, 1, 0, -2.842170943040401e-14)"/><path class="st10" d="M792.9,381.1h-4.6c-1.6,0-2.9,1.3-2.9,2.9v1.9c0,1.6,1.3,2.9,2.9,2.9h4.6c1.6,0,2.9-1.3,2.9-2.9V384&#10;&#9;&#9;&#9;&#9;&#9;&#9;C795.8,382.4,794.5,381.1,792.9,381.1z" style="fill: rgb(119, 204, 46);" transform="matrix(1, 0, 0, 1, 0, -2.842170943040401e-14)"/><path class="st9" d="M798,364.5H638.1c-1.6,0-2.9,1.3-2.9,2.9v1.9c0,1.6,1.3,2.9,2.9,2.9H798c1.6,0,2.9-1.3,2.9-2.9v-1.9&#10;&#9;&#9;&#9;&#9;&#9;&#9;C800.8,365.7,799.5,364.5,798,364.5z" style="fill: rgb(249, 187, 35);" transform="matrix(1, 0, 0, 1, 0, -2.842170943040401e-14)"/><path class="st9" d="M766.5,330.9h-7.2c-1.6,0-2.9,1.3-2.9,2.9v1.9c0,1.6,1.3,2.9,2.9,2.9h7.2c1.6,0,2.9-1.3,2.9-2.9v-1.9&#10;&#9;&#9;&#9;&#9;&#9;&#9;C769.3,332.2,768.1,330.9,766.5,330.9z" style="fill: rgb(249, 187, 35);" transform="matrix(1, 0, 0, 1, 0, -2.842170943040401e-14)"/><path class="st5" d="M617.4,293.5h-0.6c-2.1,0-3.7,1.7-3.7,3.7V422c0,2.1,1.7,3.7,3.7,3.7h0.6c2.1,0,3.7-1.7,3.7-3.7V297.3&#10;&#9;&#9;&#9;&#9;&#9;&#9;C621.2,295.2,619.5,293.5,617.4,293.5z" style="fill: rgb(239, 232, 225);" transform="matrix(1, 0, 0, 1, 0, -2.842170943040401e-14)"/><path d="M 643.999988 301.700012 A 4.2 4.2 0 0 1 639.799988 305.900012 A 4.2 4.2 0 0 1 635.599988 301.700012 A 4.2 4.2 0 0 1 639.799988 297.500012 A 4.2 4.2 0 0 1 643.999988 301.700012 Z" class="st9" style="fill: rgb(249, 187, 35);" transform="matrix(1, 0, 0, 1, 0, -2.842170943040401e-14)"/><path d="M 668.999988 301.700012 A 4.2 4.2 0 0 1 664.799988 305.900012 A 4.2 4.2 0 0 1 660.599988 301.700012 A 4.2 4.2 0 0 1 664.799988 297.500012 A 4.2 4.2 0 0 1 668.999988 301.700012 Z" class="st9" style="fill: rgb(249, 187, 35);" transform="matrix(1, 0, 0, 1, 0, -2.842170943040401e-14)"/><path class="st9" d="M655.9,299.1L655.9,299.1c-0.8-0.8-2-0.8-2.8,0l-4.4,4.4c-0.8,0.8-0.8,2,0,2.8l0,0c0.8,0.8,2,0.8,2.8,0&#10;&#9;&#9;&#9;&#9;&#9;&#9;&#9;l4.4-4.4C656.6,301.1,656.6,299.8,655.9,299.1z" style="fill: rgb(249, 187, 35);" transform="matrix(1, 0, 0, 1, 0, -2.842170943040401e-14)"/><path d="M 643.999988 419.899994 A 4.2 4.2 0 0 1 639.799988 424.099994 A 4.2 4.2 0 0 1 635.599988 419.899994 A 4.2 4.2 0 0 1 639.799988 415.699994 A 4.2 4.2 0 0 1 643.999988 419.899994 Z" class="st11" style="fill: rgb(252, 73, 73);" transform="matrix(1, 0, 0, 1, 0, -2.842170943040401e-14)"/><path d="M 668.999988 419.899994 A 4.2 4.2 0 0 1 664.799988 424.099994 A 4.2 4.2 0 0 1 660.599988 419.899994 A 4.2 4.2 0 0 1 664.799988 415.699994 A 4.2 4.2 0 0 1 668.999988 419.899994 Z" class="st11" style="fill: rgb(252, 73, 73);" transform="matrix(1, 0, 0, 1, 0, -2.842170943040401e-14)"/><path class="st11" d="M655.9,417.3L655.9,417.3c-0.8-0.8-2-0.8-2.8,0l-4.4,4.4c-0.8,0.8-0.8,2,0,2.8l0,0c0.8,0.8,2,0.8,2.8,0&#10;&#9;&#9;&#9;&#9;&#9;&#9;&#9;l4.4-4.4C656.6,419.3,656.6,418,655.9,417.3z" style="fill: rgb(252, 73, 73);" transform="matrix(1, 0, 0, 1, 0, -2.842170943040401e-14)"/><path class="st0" d="M343,970.6h-21.7c-6.3,0-11.5,5.2-11.5,11.5v28c0,6.3,5.2,11.5,11.5,11.5H343c6.3,0,11.5-5.2,11.5-11.5v-28&#10;&#9;&#9;&#9;C354.4,975.7,349.3,970.6,343,970.6z" style="fill: rgb(255, 255, 255);" transform="matrix(1, 0, 0, 1, 0, -2.842170943040401e-14)"/><path class="st0" d="M398,970.6h-21.7c-6.3,0-11.5,5.2-11.5,11.5v28c0,6.3,5.2,11.5,11.5,11.5H398c6.3,0,11.5-5.2,11.5-11.5v-28&#10;&#9;&#9;&#9;C409.4,975.7,404.3,970.6,398,970.6z" style="fill: rgb(255, 255, 255);" transform="matrix(1, 0, 0, 1, 0, -2.842170943040401e-14)"/><path class="st1" d="M454.2,981.3h-21.7c-6.3,0-11.5,5.2-11.5,11.5v28c0,6.3,5.2,11.5,11.5,11.5h21.7c6.3,0,11.5-5.2,11.5-11.5&#10;&#9;&#9;&#9;v-28C465.7,986.5,460.5,981.3,454.2,981.3z" style="fill: rgb(48, 46, 44);" transform="matrix(1, 0, 0, 1, 0, -2.842170943040401e-14)"/><g transform="matrix(1, 0, 0, 1, 0, -2.842170943040401e-14)">
				<path class="st1" d="M333.3,995.5h-2.3c-1.2,0-2.1-1-2.1-2.1v-5.3c0-1.2,1-2.1,2.1-2.1h2.3c1.2,0,2.1,1,2.1,2.1v5.3&#10;&#9;&#9;&#9;&#9;&#9;C335.4,994.5,334.4,995.5,333.3,995.5z" style="fill: rgb(48, 46, 44);"/>
			</g><g transform="matrix(1, 0, 0, 1, 0, -2.842170943040401e-14)">
					<path class="st1" d="M323.6,1007h-2.3c-1.2,0-2.1-1-2.1-2.1v-5.3c0-1.2,1-2.1,2.1-2.1h2.3c1.2,0,2.1,1,2.1,2.1v5.3&#10;&#9;&#9;&#9;&#9;&#9;&#9;C325.7,1006.1,324.7,1007,323.6,1007z" style="fill: rgb(48, 46, 44);"/>
				</g><path class="st1" d="M342.9,1007h-2.3c-1.2,0-2.1-1-2.1-2.1v-5.3c0-1.2,1-2.1,2.1-2.1h2.3c1.2,0,2.1,1,2.1,2.1v5.3&#10;&#9;&#9;&#9;&#9;&#9;&#9;C345.1,1006.1,344.1,1007,342.9,1007z" style="fill: rgb(48, 46, 44);" transform="matrix(1, 0, 0, 1, 0, -2.842170943040401e-14)"/><g transform="matrix(1, 0, 0, 1, 0, -2.842170943040401e-14)">
				<path class="st1" d="M388.6,995.5h-2.3c-1.2,0-2.1-1-2.1-2.1v-5.3c0-1.2,1-2.1,2.1-2.1h2.3c1.2,0,2.1,1,2.1,2.1v5.3&#10;&#9;&#9;&#9;&#9;&#9;C390.8,994.5,389.8,995.5,388.6,995.5z" style="fill: rgb(48, 46, 44);"/>
			</g><g transform="matrix(1, 0, 0, 1, 0, -2.842170943040401e-14)">
					<path class="st1" d="M378.9,1007h-2.3c-1.2,0-2.1-1-2.1-2.1v-5.3c0-1.2,1-2.1,2.1-2.1h2.3c1.2,0,2.1,1,2.1,2.1v5.3&#10;&#9;&#9;&#9;&#9;&#9;&#9;C381.1,1006.1,380.1,1007,378.9,1007z" style="fill: rgb(48, 46, 44);"/>
				</g><path class="st1" d="M398.3,1007H396c-1.2,0-2.1-1-2.1-2.1v-5.3c0-1.2,1-2.1,2.1-2.1h2.3c1.2,0,2.1,1,2.1,2.1v5.3&#10;&#9;&#9;&#9;&#9;&#9;&#9;C400.4,1006.1,399.5,1007,398.3,1007z" style="fill: rgb(48, 46, 44);" transform="matrix(1, 0, 0, 1, 0, -2.842170943040401e-14)"/><path class="st12" d="M454.2,970.6h-21.7c-6.3,0-11.5,5.2-11.5,11.5v28c0,6.3,5.2,11.5,11.5,11.5h21.7c6.3,0,11.5-5.2,11.5-11.5&#10;&#9;&#9;&#9;v-28C465.7,975.7,460.5,970.6,454.2,970.6z" style="fill: rgb(81, 78, 76);" transform="matrix(1, 0, 0, 1, 0, -2.842170943040401e-14)"/><path class="st13" d="M536.7,1042.1v36.4c0,1.1,1.4,2,3,2h339.5c1.7,0,3-0.9,3-2v-36.4c0-23.2-27.7-41.9-61.9-41.9H598.6&#10;&#9;&#9;&#9;&#9;C564.4,1000.2,536.7,1019,536.7,1042.1z" style="fill: rgb(87, 170, 211);" transform="matrix(1, 0, 0, 1, 0, -2.842170943040401e-14)"/><path class="st13" d="M808.1,680H610.9c-36.2,0-65.8,29.6-65.8,65.8V864c0,36.2,29.6,65.8,65.8,65.8h197.2&#10;&#9;&#9;&#9;&#9;c36.2,0,65.8-29.6,65.8-65.8V745.8C873.9,709.6,844.3,680,808.1,680z" style="fill: rgb(87, 170, 211);" transform="matrix(1, 0, 0, 1, 0, -2.842170943040401e-14)"/><path class="st8" d="M545.4,786.7c0-36.2,29.6-65.8,65.8-65.8h197.2c34.1,0,62.3,26.3,65.5,59.6v-34.7&#10;&#9;&#9;&#9;&#9;c0-36.2-29.6-65.8-65.8-65.8H610.9c-36.2,0-65.8,29.6-65.8,65.8V864c0,2.1,0.1,4.2,0.3,6.2V786.7z" style="fill: rgb(119, 192, 237);" transform="matrix(1, 0, 0, 1, 0, -2.842170943040401e-14)"/><path class="st12" d="M793,744.7H626c-11.2,0-20.4,9.2-20.4,20.4v109.6c0,11.2,9.2,20.4,20.4,20.4H793c11.2,0,20.4-9.2,20.4-20.4&#10;&#9;&#9;&#9;&#9;V765.2C813.4,753.9,804.2,744.7,793,744.7z" style="fill: rgb(81, 78, 76);" transform="matrix(1, 0, 0, 1, 0, -2.842170943040401e-14)"/><path class="st1" d="M793,764.4H626c-11.2,0-20.4,9.2-20.4,20.4v109.6c0,11.2,9.2,20.4,20.4,20.4H793c11.2,0,20.4-9.2,20.4-20.4&#10;&#9;&#9;&#9;&#9;V784.8C813.4,773.6,804.2,764.4,793,764.4z" style="fill: rgb(48, 46, 44);" transform="matrix(1, 0, 0, 1, 0, -2.842170943040401e-14)"/><path class="st1" d="M729.8,828.6v375.8h-40.6V828.6c0-1.6,1.3-2.8,2.8-2.8h34.9C728.5,825.7,729.8,827,729.8,828.6z" style="fill: rgb(48, 46, 44);" transform="matrix(1, 0, 0, 1, 0, -2.842170943040401e-14)"/><path class="st1" d="M882.3,1077.5c0,11.4-9.3,20.6-20.6,20.6H557.4c-5.7,0-10.8-2.3-14.6-6.1c-3.7-3.7-6.1-8.9-6.1-14.6&#10;&#9;&#9;&#9;&#9;c0-11.4,9.3-20.6,20.6-20.6h304.3c5.7,0,10.8,2.3,14.6,6.1C879.9,1066.6,882.3,1071.8,882.3,1077.5z" style="fill: rgb(48, 46, 44);" transform="matrix(1, 0, 0, 1, 0, -2.842170943040401e-14)"/><path class="st1" d="M803.9,1182.2H615.1c-12.6,0-22.9,10.3-22.9,22.9l0,0c0,12.6,10.3,22.9,22.9,22.9h188.8&#10;&#9;&#9;&#9;&#9;c12.6,0,22.9-10.3,22.9-22.9l0,0C826.8,1192.5,816.5,1182.2,803.9,1182.2z" style="fill: rgb(48, 46, 44);" transform="matrix(1, 0, 0, 1, 0, -2.842170943040401e-14)"/><path class="st1" d="M709.5,1196.7L709.5,1196.7c-11.4,0-20.6,9.3-20.6,20.6v53.4c0,11.4,9.3,20.6,20.6,20.6h0&#10;&#9;&#9;&#9;&#9;c11.4,0,20.6-9.3,20.6-20.6v-53.4C730.1,1206,720.8,1196.7,709.5,1196.7z" style="fill: rgb(48, 46, 44);" transform="matrix(1, 0, 0, 1, 0, -2.842170943040401e-14)"/><path d="M 638.000025 1261.099976 A 25.1 25.1 0 0 1 612.900024 1286.199976 A 25.1 25.1 0 0 1 587.800024 1261.099976 A 25.1 25.1 0 0 1 612.900024 1235.999975 A 25.1 25.1 0 0 1 638.000025 1261.099976 Z" class="st1" style="fill: rgb(48, 46, 44);" transform="matrix(1, 0, 0, 1, 0, -2.842170943040401e-14)"/><path class="st1" d="M615.4,1221.5h-5.1c-1.9,0-3.4,1.5-3.4,3.4v20.4c0,1.9,1.5,3.4,3.4,3.4h5.1c1.9,0,3.4-1.5,3.4-3.4v-20.4&#10;&#9;&#9;&#9;&#9;&#9;C618.8,1223.1,617.3,1221.5,615.4,1221.5z" style="fill: rgb(48, 46, 44);" transform="matrix(1, 0, 0, 1, 0, -2.842170943040401e-14)"/><path d="M 832.800013 1261.099976 A 25.1 25.1 0 0 1 807.700012 1286.199976 A 25.1 25.1 0 0 1 782.600012 1261.099976 A 25.1 25.1 0 0 1 807.700012 1235.999975 A 25.1 25.1 0 0 1 832.800013 1261.099976 Z" class="st1" style="fill: rgb(48, 46, 44);" transform="matrix(1, 0, 0, 1, 0, -2.842170943040401e-14)"/><path class="st1" d="M810.2,1221.5h-5.1c-1.9,0-3.4,1.5-3.4,3.4v20.4c0,1.9,1.5,3.4,3.4,3.4h5.1c1.9,0,3.4-1.5,3.4-3.4v-20.4&#10;&#9;&#9;&#9;&#9;&#9;C813.6,1223.1,812.1,1221.5,810.2,1221.5z" style="fill: rgb(48, 46, 44);" transform="matrix(1, 0, 0, 1, 0, -2.842170943040401e-14)"/><path d="M 734.1 1322.199951 A 25.1 25.1 0 0 1 709 1347.299952 A 25.1 25.1 0 0 1 683.9 1322.199951 A 25.1 25.1 0 0 1 709 1297.099951 A 25.1 25.1 0 0 1 734.1 1322.199951 Z" class="st1" style="fill: rgb(48, 46, 44);" transform="matrix(1, 0, 0, 1, 0, -2.842170943040401e-14)"/><path class="st1" d="M711.5,1282.7h-5.1c-1.9,0-3.4,1.5-3.4,3.4v20.4c0,1.9,1.5,3.4,3.4,3.4h5.1c1.9,0,3.4-1.5,3.4-3.4v-20.4&#10;&#9;&#9;&#9;&#9;&#9;C714.9,1284.2,713.4,1282.7,711.5,1282.7z" style="fill: rgb(48, 46, 44);" transform="matrix(1, 0, 0, 1, 0, -2.842170943040401e-14)"/><g transform="matrix(1, 0, 0, 1, 0, -2.842170943040401e-14)">
				<g>
					<path class="st7" d="M577.5,642.6c1.5,5.7-3.6,11.3-10.4,11.3l-303.5,0.2c-8.3,0-14.3-6.9-12-14l31.2-98c1-3.1,5.3-5.6,9.7-5.6&#10;&#9;&#9;&#9;&#9;&#9;&#9;h249.4c4.4,0,8.6,2.5,9.4,5.6L577.5,642.6z" style="fill: rgb(219, 206, 195);"/>
					<path class="st5" d="M574.8,632l-27-103.9c-0.8-3.1-4.9-5.6-9.1-5.6H296.1c-4.2,0-8.4,2.5-9.4,5.6L254.8,632&#10;&#9;&#9;&#9;&#9;&#9;&#9;c-1.4,4.4,1.7,8.1,6.9,8.1h305.9C572.7,640.1,576,636.4,574.8,632z" style="fill: rgb(239, 232, 225);"/>
					<path class="st6" d="M461.8,628.4l-7.9-30.5c-0.2-0.9-1.4-1.6-2.7-1.6h-71.1c-1.2,0-2.5,0.7-2.8,1.6l-9.4,30.5&#10;&#9;&#9;&#9;&#9;&#9;&#9;c-0.4,1.3,0.5,2.4,2,2.4h89.7C461.2,630.8,462.1,629.7,461.8,628.4z" style="fill: rgb(219, 211, 204);"/>
					<g>
						<path class="st6" d="M523.5,529.3H306.2c-3.2,0-6.2,1.4-6.8,3.1l-16.5,54.1c-0.7,2.2,1.8,4,5.5,4h250.1c3.7,0,6.2-1.8,5.7-4&#10;&#9;&#9;&#9;&#9;&#9;&#9;&#9;l-14-54.1C529.7,530.7,526.7,529.3,523.5,529.3z" style="fill: rgb(219, 211, 204);"/>
						<g>
							<path class="st1" d="M311.1,544.1c-1,0-1.7-0.4-1.6-1l2.1-7.6c0.1-0.5,1.1-1,2.1-1h26.9c1,0,1.7,0.4,1.6,1l-1.5,7.6&#10;&#9;&#9;&#9;&#9;&#9;&#9;&#9;&#9;c-0.1,0.5-1,1-2,1H311.1z" style="fill: rgb(48, 46, 44);"/>
							<path class="st1" d="M307.8,556.2c-1,0-1.8-0.5-1.6-1.1l2.2-8c0.2-0.6,1.1-1,2.1-1H326c1,0,1.7,0.5,1.6,1l-1.8,8&#10;&#9;&#9;&#9;&#9;&#9;&#9;&#9;&#9;c-0.1,0.6-1.1,1.1-2.1,1.1H307.8z" style="fill: rgb(48, 46, 44);"/>
							<path class="st1" d="M332.5,556.2c-1,0-1.8-0.5-1.7-1.1l1.7-8c0.1-0.6,1-1,2.1-1h15.5c1,0,1.8,0.5,1.7,1l-1.4,8&#10;&#9;&#9;&#9;&#9;&#9;&#9;&#9;&#9;c-0.1,0.6-1,1.1-2.1,1.1H332.5z" style="fill: rgb(48, 46, 44);"/>
							<path class="st1" d="M357.1,556.2c-1,0-1.8-0.5-1.7-1.1l1.3-8c0.1-0.6,1-1,2-1h15.5c1,0,1.8,0.5,1.7,1l-0.9,8&#10;&#9;&#9;&#9;&#9;&#9;&#9;&#9;&#9;c-0.1,0.6-1,1.1-2,1.1H357.1z" style="fill: rgb(48, 46, 44);"/>
							<path class="st1" d="M381.8,556.2c-1,0-1.8-0.5-1.8-1.1l0.8-8c0.1-0.6,0.9-1,2-1h15.5c1,0,1.8,0.5,1.8,1l-0.5,8&#10;&#9;&#9;&#9;&#9;&#9;&#9;&#9;&#9;c0,0.6-0.9,1.1-2,1.1H381.8z" style="fill: rgb(48, 46, 44);"/>
							<path class="st1" d="M406.5,556.2c-1,0-1.9-0.5-1.8-1.1l0.4-8c0-0.6,0.9-1,1.9-1h15.5c1,0,1.9,0.5,1.9,1l0,8&#10;&#9;&#9;&#9;&#9;&#9;&#9;&#9;&#9;c0,0.6-0.9,1.1-1.9,1.1H406.5z" style="fill: rgb(48, 46, 44);"/>
							<path class="st1" d="M431.3,556.2c-1,0-1.9-0.5-1.9-1.1l-0.1-8c0-0.6,0.8-1,1.8-1h15.5c1,0,1.9,0.5,1.9,1l0.5,8&#10;&#9;&#9;&#9;&#9;&#9;&#9;&#9;&#9;c0,0.6-0.8,1.1-1.8,1.1H431.3z" style="fill: rgb(48, 46, 44);"/>
							<path class="st1" d="M456,556.2c-1,0-1.9-0.5-2-1.1l-0.5-8c0-0.6,0.8-1,1.8-1h15.5c1,0,1.9,0.5,2,1l0.9,8&#10;&#9;&#9;&#9;&#9;&#9;&#9;&#9;&#9;c0.1,0.6-0.7,1.1-1.8,1.1H456z" style="fill: rgb(48, 46, 44);"/>
							<g>
								<path class="st1" d="M350.3,569.8c-1.1,0-1.9-0.5-1.8-1.1l1.4-8.5c0.1-0.6,1-1.1,2.1-1.1h16c1.1,0,1.8,0.5,1.8,1.1l-1.1,8.5&#10;&#9;&#9;&#9;&#9;&#9;&#9;&#9;&#9;&#9;c-0.1,0.6-1,1.1-2.1,1.1H350.3z" style="fill: rgb(48, 46, 44);"/>
								<path class="st1" d="M375.8,569.8c-1.1,0-1.9-0.5-1.8-1.1l1-8.5c0.1-0.6,1-1.1,2-1.1h16c1.1,0,1.9,0.5,1.8,1.1l-0.6,8.5&#10;&#9;&#9;&#9;&#9;&#9;&#9;&#9;&#9;&#9;c0,0.6-1,1.1-2,1.1H375.8z" style="fill: rgb(48, 46, 44);"/>
								<path class="st1" d="M401.2,569.8c-1.1,0-1.9-0.5-1.9-1.1l0.5-8.5c0-0.6,0.9-1.1,2-1.1h16c1.1,0,1.9,0.5,1.9,1.1l-0.1,8.5&#10;&#9;&#9;&#9;&#9;&#9;&#9;&#9;&#9;&#9;c0,0.6-0.9,1.1-2,1.1H401.2z" style="fill: rgb(48, 46, 44);"/>
								<path class="st1" d="M426.6,569.8c-1.1,0-2-0.5-2-1.1l0-8.5c0-0.6,0.9-1.1,1.9-1.1h16c1.1,0,1.9,0.5,2,1.1l0.4,8.5&#10;&#9;&#9;&#9;&#9;&#9;&#9;&#9;&#9;&#9;c0,0.6-0.8,1.1-1.9,1.1H426.6z" style="fill: rgb(48, 46, 44);"/>
								<path class="st1" d="M452.3,569.8c-1.1,0-2-0.5-2-1.1l-0.5-8.5c0-0.6,0.8-1.1,1.8-1.1h16c1.1,0,2,0.5,2,1.1l0.9,8.5&#10;&#9;&#9;&#9;&#9;&#9;&#9;&#9;&#9;&#9;c0.1,0.6-0.8,1.1-1.8,1.1H452.3z" style="fill: rgb(48, 46, 44);"/>
							</g>
							<g>
								<path class="st1" d="M347.3,544.1c-1,0-1.8-0.4-1.7-1l1.4-7.6c0.1-0.5,1-1,2-1h15.1c1,0,1.7,0.4,1.7,1l-1.1,7.6&#10;&#9;&#9;&#9;&#9;&#9;&#9;&#9;&#9;&#9;c-0.1,0.5-1,1-2,1H347.3z" style="fill: rgb(48, 46, 44);"/>
								<path class="st1" d="M371.3,544.1c-1,0-1.8-0.4-1.7-1l1-7.6c0.1-0.5,0.9-1,1.9-1h15.1c1,0,1.8,0.4,1.7,1l-0.6,7.6&#10;&#9;&#9;&#9;&#9;&#9;&#9;&#9;&#9;&#9;c0,0.5-0.9,1-1.9,1H371.3z" style="fill: rgb(48, 46, 44);"/>
								<path class="st1" d="M395.3,544.1c-1,0-1.8-0.4-1.8-1l0.6-7.6c0-0.5,0.9-1,1.9-1H411c1,0,1.8,0.4,1.8,1l-0.2,7.6&#10;&#9;&#9;&#9;&#9;&#9;&#9;&#9;&#9;&#9;c0,0.5-0.9,1-1.9,1H395.3z" style="fill: rgb(48, 46, 44);"/>
								<path class="st1" d="M419.2,544.1c-1,0-1.8-0.4-1.8-1l0.1-7.6c0-0.5,0.8-1,1.8-1h15.1c1,0,1.8,0.4,1.8,1l0.2,7.6&#10;&#9;&#9;&#9;&#9;&#9;&#9;&#9;&#9;&#9;c0,0.5-0.8,1-1.8,1H419.2z" style="fill: rgb(48, 46, 44);"/>
								<path class="st1" d="M443.4,544.1c-1,0-1.9-0.4-1.9-1l-0.3-7.6c0-0.5,0.8-1,1.8-1h15.1c1,0,1.8,0.4,1.9,1l0.7,7.6&#10;&#9;&#9;&#9;&#9;&#9;&#9;&#9;&#9;&#9;c0,0.5-0.7,1-1.8,1H443.4z" style="fill: rgb(48, 46, 44);"/>
								<path class="st1" d="M467.4,544.1c-1,0-1.9-0.4-1.9-1l-0.7-7.6c-0.1-0.5,0.7-1,1.7-1h15.1c1,0,1.9,0.4,1.9,1l1.1,7.6&#10;&#9;&#9;&#9;&#9;&#9;&#9;&#9;&#9;&#9;c0.1,0.5-0.7,1-1.7,1H467.4z" style="fill: rgb(48, 46, 44);"/>
							</g>
							<path class="st1" d="M480.6,556.2c-1,0-2-0.5-2-1.1l-1-8c-0.1-0.6,0.7-1,1.7-1h15.5c1,0,1.9,0.5,2,1l1.4,8&#10;&#9;&#9;&#9;&#9;&#9;&#9;&#9;&#9;c0.1,0.6-0.7,1.1-1.7,1.1H480.6z" style="fill: rgb(48, 46, 44);"/>
							<path class="st1" d="M300.3,584.1c-1.1,0-1.9-0.5-1.7-1.2l2.5-9c0.2-0.6,1.2-1.1,2.3-1.1h16.5c1.1,0,1.9,0.5,1.7,1.1l-2.1,9&#10;&#9;&#9;&#9;&#9;&#9;&#9;&#9;&#9;c-0.1,0.7-1.2,1.2-2.3,1.2H300.3z" style="fill: rgb(48, 46, 44);"/>
							<path class="st1" d="M327.1,584.1c-1.1,0-1.9-0.5-1.8-1.2l1.9-9c0.1-0.6,1.1-1.1,2.2-1.1h25c1.1,0,1.9,0.5,1.8,1.1l-1.4,9&#10;&#9;&#9;&#9;&#9;&#9;&#9;&#9;&#9;c-0.1,0.7-1.1,1.2-2.2,1.2H327.1z" style="fill: rgb(48, 46, 44);"/>
							<path class="st1" d="M362,584.1c-1.1,0-1.9-0.5-1.9-1.2l1.3-9c0.1-0.6,1-1.1,2.1-1.1h109.5c1.1,0,2,0.5,2.1,1.1l1,9&#10;&#9;&#9;&#9;&#9;&#9;&#9;&#9;&#9;c0.1,0.7-0.8,1.2-1.9,1.2H362z" style="fill: rgb(48, 46, 44);"/>
							<path class="st1" d="M304.1,569.8c-1.1,0-1.8-0.5-1.6-1.1l2.3-8.5c0.2-0.6,1.1-1.1,2.2-1.1h35.8c1.1,0,1.8,0.5,1.7,1.1&#10;&#9;&#9;&#9;&#9;&#9;&#9;&#9;&#9;l-1.6,8.5c-0.1,0.6-1.1,1.1-2.2,1.1H304.1z" style="fill: rgb(48, 46, 44);"/>
							<path class="st1" d="M491.4,544.1c-1,0-1.9-0.4-2-1l-1.2-7.6c-0.1-0.5,0.7-1,1.7-1h27.2c1,0,1.9,0.4,2,1l1.7,7.6&#10;&#9;&#9;&#9;&#9;&#9;&#9;&#9;&#9;c0.1,0.5-0.6,1-1.6,1H491.4z" style="fill: rgb(48, 46, 44);"/>
							<path class="st1" d="M506.1,556.2c-1,0-2-0.5-2.1-1.1l-1.5-8c-0.1-0.6,0.6-1,1.7-1h15.5c1,0,2,0.5,2.1,1l1.8,8&#10;&#9;&#9;&#9;&#9;&#9;&#9;&#9;&#9;c0.1,0.6-0.6,1.1-1.7,1.1H506.1z" style="fill: rgb(48, 46, 44);"/>
							<path class="st1" d="M511.4,584.3c-1.1,0-2.1-0.5-2.2-1.2l-1.7-9c-0.1-0.6,0.7-1.1,1.8-1.1h16.5c1.1,0,2.1,0.5,2.2,1.1l2.1,9&#10;&#9;&#9;&#9;&#9;&#9;&#9;&#9;&#9;c0.2,0.7-0.6,1.2-1.7,1.2H511.4z" style="fill: rgb(48, 46, 44);"/>
							<path class="st1" d="M484.3,584.3c-1.1,0-2.1-0.5-2.2-1.2l-1.1-9c-0.1-0.6,0.7-1.1,1.8-1.1h16.5c1.1,0,2.1,0.5,2.2,1.1l1.5,9&#10;&#9;&#9;&#9;&#9;&#9;&#9;&#9;&#9;c0.1,0.7-0.7,1.2-1.8,1.2H484.3z" style="fill: rgb(48, 46, 44);"/>
							<path class="st1" d="M477.7,569.8c-1.1,0-2-0.5-2.1-1.1l-1-8.5c-0.1-0.6,0.7-1.1,1.8-1.1h46.2c1.1,0,2,0.5,2.2,1.1l2,8.5&#10;&#9;&#9;&#9;&#9;&#9;&#9;&#9;&#9;c0.1,0.6-0.6,1.1-1.7,1.1H477.7z" style="fill: rgb(48, 46, 44);"/>
						</g>
					</g>
				</g>
				<path class="st1" d="M536.8,349.1H296.7c-8.1,0-14.7,7-14.7,15.5v143.8c0,8.5,6.6,15.5,14.7,15.5h240.1c8.1,0,14.7-7,14.7-15.5&#10;&#9;&#9;&#9;&#9;&#9;V364.7C551.5,356.1,544.9,349.1,536.8,349.1z" style="fill: rgb(48, 46, 44);"/>
				<path class="st8" d="M301.4,512.1c-2.4,0-4.4-2.4-4.4-5.2V367.6c0-2.8,2-5.2,4.4-5.2H532c2.4,0,4.4,2.4,4.4,5.2v139.3&#10;&#9;&#9;&#9;&#9;&#9;c0,2.8-2,5.2-4.4,5.2H301.4z" style="fill: rgb(119, 192, 237);"/>
			</g><path class="st0" d="M497,374.3H341c-1.3,0-2.4,1.1-2.4,2.4v117.7c0,1.3,1.1,2.4,2.4,2.4h156c1.3,0,2.4-1.1,2.4-2.4V376.7&#10;&#9;&#9;&#9;&#9;&#9;C499.3,375.4,498.3,374.3,497,374.3z" style="fill: rgb(255, 255, 255);" transform="matrix(1, 0, 0, 1, 0, -2.842170943040401e-14)"/><path class="st5" d="M499.3,395.4v-18.6c0-1.3-1.1-2.4-2.4-2.4H341c-1.3,0-2.4,1.1-2.4,2.4v18.6H499.3z" style="fill: rgb(239, 232, 225);" transform="matrix(1, 0, 0, 1, 0, -2.842170943040401e-14)"/><path class="st9" d="M354.9,389.6h-4c-1.6,0-3-1.3-3-3v-4c0-1.6,1.3-3,3-3h4c1.6,0,3,1.3,3,3v4&#10;&#9;&#9;&#9;&#9;&#9;&#9;C357.8,388.3,356.5,389.6,354.9,389.6z" style="fill: rgb(249, 187, 35);" transform="matrix(1, 0, 0, 1, 0, -2.842170943040401e-14)"/><path class="st10" d="M373.3,389.6h-4c-1.6,0-3-1.3-3-3v-4c0-1.6,1.3-3,3-3h4c1.6,0,3,1.3,3,3v4&#10;&#9;&#9;&#9;&#9;&#9;&#9;C376.3,388.3,375,389.6,373.3,389.6z" style="fill: rgb(119, 204, 46);" transform="matrix(1, 0, 0, 1, 0, -2.842170943040401e-14)"/><path class="st11" d="M392.4,389.6h-4c-1.6,0-3-1.3-3-3v-4c0-1.6,1.3-3,3-3h4c1.6,0,3,1.3,3,3v4&#10;&#9;&#9;&#9;&#9;&#9;&#9;C395.3,388.3,394,389.6,392.4,389.6z" style="fill: rgb(252, 73, 73);" transform="matrix(1, 0, 0, 1, 0, -2.842170943040401e-14)"/><path class="st10" d="M442.8,413.7h-78.2c-1,0-1.9,0.9-1.9,1.9v1.3c0,1,0.9,1.9,1.9,1.9h78.2c1,0,1.9-0.9,1.9-1.9v-1.3&#10;&#9;&#9;&#9;&#9;&#9;&#9;C444.7,414.6,443.8,413.7,442.8,413.7z" style="fill: rgb(119, 204, 46);" transform="matrix(1, 0, 0, 1, 0, -2.842170943040401e-14)"/><path class="st9" d="M437.5,425.7h-72.9c-1,0-1.9,0.9-1.9,1.9v1.3c0,1,0.9,1.9,1.9,1.9h72.9c1,0,1.9-0.9,1.9-1.9v-1.3&#10;&#9;&#9;&#9;&#9;&#9;&#9;C439.4,426.5,438.6,425.7,437.5,425.7z" style="fill: rgb(249, 187, 35);" transform="matrix(1, 0, 0, 1, 0, -2.842170943040401e-14)"/><path class="st11" d="M437.5,471h-72.9c-1,0-1.9,0.9-1.9,1.9v1.3c0,1,0.9,1.9,1.9,1.9h72.9c1,0,1.9-0.9,1.9-1.9V473&#10;&#9;&#9;&#9;&#9;&#9;&#9;C439.4,471.9,438.6,471,437.5,471z" style="fill: rgb(252, 73, 73);" transform="matrix(1, 0, 0, 1, 0, -2.842170943040401e-14)"/><path class="st11" d="M458,436.5h-93.3c-1,0-1.9,0.9-1.9,1.9v1.3c0,1,0.9,1.9,1.9,1.9H458c1,0,1.9-0.9,1.9-1.9v-1.3&#10;&#9;&#9;&#9;&#9;&#9;&#9;C459.9,437.3,459,436.5,458,436.5z" style="fill: rgb(252, 73, 73);" transform="matrix(1, 0, 0, 1, 0, -2.842170943040401e-14)"/><path class="st10" d="M456.5,458.9h-91.8c-1,0-1.9,0.9-1.9,1.9v1.3c0,1,0.9,1.9,1.9,1.9h91.8c1,0,1.9-0.9,1.9-1.9v-1.3&#10;&#9;&#9;&#9;&#9;&#9;&#9;C458.4,459.8,457.5,458.9,456.5,458.9z" style="fill: rgb(119, 204, 46);" transform="matrix(1, 0, 0, 1, 0, -2.842170943040401e-14)"/><path class="st10" d="M467.1,458.9h-3c-1,0-1.9,0.9-1.9,1.9v1.3c0,1,0.9,1.9,1.9,1.9h3c1,0,1.9-0.9,1.9-1.9v-1.3&#10;&#9;&#9;&#9;&#9;&#9;&#9;C469,459.8,468.2,458.9,467.1,458.9z" style="fill: rgb(119, 204, 46);" transform="matrix(1, 0, 0, 1, 0, -2.842170943040401e-14)"/><path class="st9" d="M470.5,447.9H364.6c-1,0-1.9,0.9-1.9,1.9v1.3c0,1,0.9,1.9,1.9,1.9h105.8c1,0,1.9-0.9,1.9-1.9v-1.3&#10;&#9;&#9;&#9;&#9;&#9;&#9;C472.4,448.7,471.5,447.9,470.5,447.9z" style="fill: rgb(249, 187, 35);" transform="matrix(1, 0, 0, 1, 0, -2.842170943040401e-14)"/><path class="st9" d="M449.6,425.7h-4.8c-1,0-1.9,0.9-1.9,1.9v1.3c0,1,0.9,1.9,1.9,1.9h4.8c1,0,1.9-0.9,1.9-1.9v-1.3&#10;&#9;&#9;&#9;&#9;&#9;&#9;C451.5,426.5,450.7,425.7,449.6,425.7z" style="fill: rgb(249, 187, 35);" transform="matrix(1, 0, 0, 1, 0, -2.842170943040401e-14)"/><path class="st5" d="M351,400.9h-0.4c-1.4,0-2.5,1.1-2.5,2.5v82.5c0,1.4,1.1,2.5,2.5,2.5h0.4c1.4,0,2.5-1.1,2.5-2.5v-82.5&#10;&#9;&#9;&#9;&#9;&#9;&#9;C353.4,402,352.3,400.9,351,400.9z" style="fill: rgb(239, 232, 225);" transform="matrix(1, 0, 0, 1, 0, -2.842170943040401e-14)"/><path d="M 368.599988 406.299988 A 2.8 2.8 0 0 1 365.799988 409.099988 A 2.8 2.8 0 0 1 362.999988 406.299988 A 2.8 2.8 0 0 1 365.799988 403.499988 A 2.8 2.8 0 0 1 368.599988 406.299988 Z" class="st9" style="fill: rgb(249, 187, 35);" transform="matrix(1, 0, 0, 1, 0, -2.842170943040401e-14)"/><path d="M 385.099988 406.299988 A 2.8 2.8 0 0 1 382.299988 409.099988 A 2.8 2.8 0 0 1 379.499988 406.299988 A 2.8 2.8 0 0 1 382.299988 403.499988 A 2.8 2.8 0 0 1 385.099988 406.299988 Z" class="st9" style="fill: rgb(249, 187, 35);" transform="matrix(1, 0, 0, 1, 0, -2.842170943040401e-14)"/><path class="st9" d="M376.4,404.6L376.4,404.6c-0.5-0.5-1.3-0.5-1.8,0l-2.9,2.9c-0.5,0.5-0.5,1.3,0,1.8l0,0&#10;&#9;&#9;&#9;&#9;&#9;&#9;&#9;c0.5,0.5,1.3,0.5,1.8,0l2.9-2.9C376.9,405.9,376.9,405.1,376.4,404.6z" style="fill: rgb(249, 187, 35);" transform="matrix(1, 0, 0, 1, 0, -2.842170943040401e-14)"/><path d="M 368.599988 484.600006 A 2.8 2.8 0 0 1 365.799988 487.400006 A 2.8 2.8 0 0 1 362.999988 484.600006 A 2.8 2.8 0 0 1 365.799988 481.800006 A 2.8 2.8 0 0 1 368.599988 484.600006 Z" class="st11" style="fill: rgb(252, 73, 73);" transform="matrix(1, 0, 0, 1, 0, -2.842170943040401e-14)"/><path d="M 385.099988 484.600006 A 2.8 2.8 0 0 1 382.299988 487.400006 A 2.8 2.8 0 0 1 379.499988 484.600006 A 2.8 2.8 0 0 1 382.299988 481.800006 A 2.8 2.8 0 0 1 385.099988 484.600006 Z" class="st11" style="fill: rgb(252, 73, 73);" transform="matrix(1, 0, 0, 1, 0, -2.842170943040401e-14)"/><path class="st11" d="M376.4,482.8L376.4,482.8c-0.5-0.5-1.3-0.5-1.8,0l-2.9,2.9c-0.5,0.5-0.5,1.3,0,1.8l0,0&#10;&#9;&#9;&#9;&#9;&#9;&#9;&#9;c0.5,0.5,1.3,0.5,1.8,0l2.9-2.9C376.9,484.2,376.9,483.3,376.4,482.8z" style="fill: rgb(252, 73, 73);" transform="matrix(1, 0, 0, 1, 0, -2.842170943040401e-14)"/><path class="st5" d="M1033.2,718.8l-1.2,36.5l-1.3,39.6l-0.5,15c0,11.8-19.4,21.3-43.3,21.3c-23.9,0-43.3-9.6-43.3-21.3&#10;&#9;&#9;&#9;&#9;l-0.3-14.6l-0.9-39.3l-0.8-37.1H1033.2z" style="fill: rgb(239, 232, 225);" transform="matrix(1, 0, 0, 1, 0, -2.842170943040401e-14)"/><path class="st14" d="M1032,755.3l-1.3,39.6c-11,5.8-26.6,9.4-44,9.4c-17,0-32.4-3.5-43.4-9.1l-0.9-39.3&#10;&#9;&#9;&#9;&#9;c11,5.9,26.7,9.6,44.2,9.6C1004.8,765.5,1021,761.5,1032,755.3z" style="fill: rgb(216, 132, 42);" transform="matrix(1, 0, 0, 1, 0, -2.842170943040401e-14)"/><path d="M 1038.500023 719.5 A 51.599998 25.5 0 0 1 986.900024 745 A 51.599998 25.5 0 0 1 935.300026 719.5 A 51.599998 25.5 0 0 1 986.900024 694 A 51.599998 25.5 0 0 1 1038.500023 719.5 Z" class="st6" style="fill: rgb(219, 211, 204);" transform="matrix(1, 0, 0, 1, 0, -2.842170943040401e-14)"/><path d="M 1038.500023 712.799988 A 51.599998 25.5 0 0 1 986.900024 738.299988 A 51.599998 25.5 0 0 1 935.300026 712.799988 A 51.599998 25.5 0 0 1 986.900024 687.299988 A 51.599998 25.5 0 0 1 1038.500023 712.799988 Z" class="st5" style="fill: rgb(239, 232, 225);" transform="matrix(1, 0, 0, 1, 0, -2.842170943040401e-14)"/><path d="M 1031.400024 708.200012 A 44.5 22 0 0 1 986.900024 730.200012 A 44.5 22 0 0 1 942.400024 708.200012 A 44.5 22 0 0 1 986.900024 686.200012 A 44.5 22 0 0 1 1031.400024 708.200012 Z" class="st6" style="fill: rgb(219, 211, 204);" transform="matrix(1, 0, 0, 1, 0, -2.842170943040401e-14)"/><path d="M 1031.400024 702.400024 A 44.5 22 0 0 1 986.900024 724.400024 A 44.5 22 0 0 1 942.400024 702.400024 A 44.5 22 0 0 1 986.900024 680.400024 A 44.5 22 0 0 1 1031.400024 702.400024 Z" class="st5" style="fill: rgb(239, 232, 225);" transform="matrix(1, 0, 0, 1, 0, -2.842170943040401e-14)"/><path d="M 994.399976 701.599976 A 8.8 4.5 0 0 1 985.599976 706.099976 A 8.8 4.5 0 0 1 976.799975 701.599976 A 8.8 4.5 0 0 1 985.599976 697.099976 A 8.8 4.5 0 0 1 994.399976 701.599976 Z" class="st6" style="fill: rgb(219, 211, 204);" transform="matrix(1, 0, 0, 1, 0, -2.842170943040401e-14)"/><path class="st6" d="M989.7,702.3c0,0-0.1,0-0.2,0c-0.1,0-0.2,0-0.2,0s0.1,0,0.2,0C989.6,702.3,989.7,702.3,989.7,702.3z" style="fill: rgb(219, 211, 204);" transform="matrix(1, 0, 0, 1, 0, -2.842170943040401e-14)"/><path class="st5" d="M486.2,670.4H293.9c-12.1,0-21.9,9.9-21.9,21.9v106.2c0,12.1,9.9,21.9,21.9,21.9h192.2&#10;&#9;&#9;&#9;&#9;c12.1,0,21.9-9.9,21.9-21.9V692.3C508.1,680.2,498.2,670.4,486.2,670.4z" style="fill: rgb(239, 232, 225);" transform="matrix(1, 0, 0, 1, 0, -2.842170943040401e-14)"/><path class="st7" d="M508.1,798.5v11.1c0,12.1-9.9,21.9-21.9,21.9H293.9c-12.1,0-21.9-9.9-21.9-21.9v-11.1&#10;&#9;&#9;&#9;&#9;c0,12.1,9.9,21.9,21.9,21.9h192.2C498.2,820.5,508.1,810.6,508.1,798.5z" style="fill: rgb(219, 206, 195);" transform="matrix(1, 0, 0, 1, 0, -2.842170943040401e-14)"/><path class="st8" d="M288.8,795.8V695c0-5.5,4.5-10,10-10h171.5c5.5,0,10,4.5,10,10v100.8c0,5.5-4.5,10-10,10H298.8&#10;&#9;&#9;&#9;&#9;C293.3,805.8,288.8,801.3,288.8,795.8z" style="fill: rgb(119, 192, 237);" transform="matrix(1, 0, 0, 1, 0, -2.842170943040401e-14)"/><path class="st0" d="M423.8,706.6h-94.6c-1.3,0-2.3,1-2.3,2.3v1.5c0,1.3,1,2.3,2.3,2.3h94.6c1.3,0,2.3-1,2.3-2.3v-1.5&#10;&#9;&#9;&#9;&#9;&#9;C426.1,707.7,425.1,706.6,423.8,706.6z" style="fill: rgb(255, 255, 255);" transform="matrix(1, 0, 0, 1, 0, -2.842170943040401e-14)"/><path class="st0" d="M417.4,721.1h-88.3c-1.3,0-2.3,1-2.3,2.3v1.5c0,1.3,1,2.3,2.3,2.3h88.3c1.3,0,2.3-1,2.3-2.3v-1.5&#10;&#9;&#9;&#9;&#9;&#9;C419.7,722.2,418.7,721.1,417.4,721.1z" style="fill: rgb(255, 255, 255);" transform="matrix(1, 0, 0, 1, 0, -2.842170943040401e-14)"/><path class="st0" d="M417.4,776.1h-88.3c-1.3,0-2.3,1-2.3,2.3v1.5c0,1.3,1,2.3,2.3,2.3h88.3c1.3,0,2.3-1,2.3-2.3v-1.5&#10;&#9;&#9;&#9;&#9;&#9;C419.7,777.1,418.7,776.1,417.4,776.1z" style="fill: rgb(255, 255, 255);" transform="matrix(1, 0, 0, 1, 0, -2.842170943040401e-14)"/><path class="st0" d="M442.2,734.2h-113c-1.3,0-2.3,1-2.3,2.3v1.5c0,1.3,1,2.3,2.3,2.3h113c1.3,0,2.3-1,2.3-2.3v-1.5&#10;&#9;&#9;&#9;&#9;&#9;C444.5,735.2,443.5,734.2,442.2,734.2z" style="fill: rgb(255, 255, 255);" transform="matrix(1, 0, 0, 1, 0, -2.842170943040401e-14)"/><path class="st0" d="M440.4,761.3H329.2c-1.3,0-2.3,1-2.3,2.3v1.5c0,1.3,1,2.3,2.3,2.3h111.2c1.3,0,2.3-1,2.3-2.3v-1.5&#10;&#9;&#9;&#9;&#9;&#9;C442.7,762.4,441.7,761.3,440.4,761.3z" style="fill: rgb(255, 255, 255);" transform="matrix(1, 0, 0, 1, 0, -2.842170943040401e-14)"/><path class="st0" d="M453.3,761.3h-3.7c-1.3,0-2.3,1-2.3,2.3v1.5c0,1.3,1,2.3,2.3,2.3h3.7c1.3,0,2.3-1,2.3-2.3v-1.5&#10;&#9;&#9;&#9;&#9;&#9;C455.6,762.4,454.5,761.3,453.3,761.3z" style="fill: rgb(255, 255, 255);" transform="matrix(1, 0, 0, 1, 0, -2.842170943040401e-14)"/><path class="st0" d="M457.3,748H329.2c-1.3,0-2.3,1-2.3,2.3v1.5c0,1.3,1,2.3,2.3,2.3h128.2c1.3,0,2.3-1,2.3-2.3v-1.5&#10;&#9;&#9;&#9;&#9;&#9;C459.6,749,458.6,748,457.3,748z" style="fill: rgb(255, 255, 255);" transform="matrix(1, 0, 0, 1, 0, -2.842170943040401e-14)"/><path class="st0" d="M432.1,721.1h-5.8c-1.3,0-2.3,1-2.3,2.3v1.5c0,1.3,1,2.3,2.3,2.3h5.8c1.3,0,2.3-1,2.3-2.3v-1.5&#10;&#9;&#9;&#9;&#9;&#9;C434.4,722.2,433.4,721.1,432.1,721.1z" style="fill: rgb(255, 255, 255);" transform="matrix(1, 0, 0, 1, 0, -2.842170943040401e-14)"/><path d="M 334.000006 697.700012 A 3.4 3.4 0 0 1 330.600006 701.100012 A 3.4 3.4 0 0 1 327.200006 697.700012 A 3.4 3.4 0 0 1 330.600006 694.300012 A 3.4 3.4 0 0 1 334.000006 697.700012 Z" class="st0" style="fill: rgb(255, 255, 255);" transform="matrix(1, 0, 0, 1, 0, -2.842170943040401e-14)"/><path d="M 354.000006 697.700012 A 3.4 3.4 0 0 1 350.600006 701.100012 A 3.4 3.4 0 0 1 347.200006 697.700012 A 3.4 3.4 0 0 1 350.600006 694.300012 A 3.4 3.4 0 0 1 354.000006 697.700012 Z" class="st0" style="fill: rgb(255, 255, 255);" transform="matrix(1, 0, 0, 1, 0, -2.842170943040401e-14)"/><path class="st0" d="M343.4,695.6L343.4,695.6c-0.6-0.6-1.6-0.6-2.2,0l-3.5,3.5c-0.6,0.6-0.6,1.6,0,2.2l0,0&#10;&#9;&#9;&#9;&#9;&#9;&#9;c0.6,0.6,1.6,0.6,2.2,0l3.5-3.5C344,697.2,344,696.2,343.4,695.6z" style="fill: rgb(255, 255, 255);" transform="matrix(1, 0, 0, 1, 0, -2.842170943040401e-14)"/><path d="M 334.000006 792.5 A 3.4 3.4 0 0 1 330.600006 795.9 A 3.4 3.4 0 0 1 327.200006 792.5 A 3.4 3.4 0 0 1 330.600006 789.1 A 3.4 3.4 0 0 1 334.000006 792.5 Z" class="st0" style="fill: rgb(255, 255, 255);" transform="matrix(1, 0, 0, 1, 0, -2.842170943040401e-14)"/><path d="M 354.000006 792.5 A 3.4 3.4 0 0 1 350.600006 795.9 A 3.4 3.4 0 0 1 347.200006 792.5 A 3.4 3.4 0 0 1 350.600006 789.1 A 3.4 3.4 0 0 1 354.000006 792.5 Z" class="st0" style="fill: rgb(255, 255, 255);" transform="matrix(1, 0, 0, 1, 0, -2.842170943040401e-14)"/><path class="st0" d="M343.4,790.3L343.4,790.3c-0.6-0.6-1.6-0.6-2.2,0l-3.5,3.5c-0.6,0.6-0.6,1.6,0,2.2l0,0&#10;&#9;&#9;&#9;&#9;&#9;&#9;c0.6,0.6,1.6,0.6,2.2,0l3.5-3.5C344,791.9,344,791,343.4,790.3z" style="fill: rgb(255, 255, 255);" transform="matrix(1, 0, 0, 1, 0, -2.842170943040401e-14)"/><path class="st0" d="M311.2,697.7L311.2,697.7c-1.8,0-3.3,1.5-3.3,3.3v88.9c0,1.8,1.5,3.3,3.3,3.3l0,0c1.8,0,3.3-1.5,3.3-3.3V701&#10;&#9;&#9;&#9;&#9;C314.5,699.2,313,697.7,311.2,697.7z" style="fill: rgb(255, 255, 255);" transform="matrix(1, 0, 0, 1, 0, -2.842170943040401e-14)"/><path d="M 501.900012 745.400024 A 7.7 7.7 0 0 1 494.200012 753.100024 A 7.7 7.7 0 0 1 486.500012 745.400024 A 7.7 7.7 0 0 1 494.200012 737.700025 A 7.7 7.7 0 0 1 501.900012 745.400024 Z" class="st1" style="fill: rgb(48, 46, 44);" transform="matrix(1, 0, 0, 1, 0, -2.842170943040401e-14)"/><path d="M 1157.199997 550.099976 A 78.699997 32.599998 0 0 1 1078.5 582.699974 A 78.699997 32.599998 0 0 1 999.800003 550.099976 A 78.699997 32.599998 0 0 1 1078.5 517.499977 A 78.699997 32.599998 0 0 1 1157.199997 550.099976 Z" class="st7" style="fill: rgb(219, 206, 195);" transform="matrix(1, 0, 0, 1, 0, -2.842170943040401e-14)"/><path d="M 1157.199997 536.5 A 78.699997 32.599998 0 0 1 1078.5 569.099998 A 78.699997 32.599998 0 0 1 999.800003 536.5 A 78.699997 32.599998 0 0 1 1078.5 503.900002 A 78.699997 32.599998 0 0 1 1157.199997 536.5 Z" class="st5" style="fill: rgb(239, 232, 225);" transform="matrix(1, 0, 0, 1, 0, -2.842170943040401e-14)"/><path d="M 1109.1 536.5 A 30.6 12.7 0 0 1 1078.5 549.2 A 30.6 12.7 0 0 1 1047.9 536.5 A 30.6 12.7 0 0 1 1078.5 523.8 A 30.6 12.7 0 0 1 1109.1 536.5 Z" class="st7" style="fill: rgb(219, 206, 195);" transform="matrix(1, 0, 0, 1, 0, -2.842170943040401e-14)"/><path class="st5" d="M1123.4,355.2h-9.5c-1.7,0-3.5,1.4-3.9,3.2l-38.8,178.2c-0.4,1.7,0.7,3.2,2.5,3.2h9.5c1.7,0,3.5-1.4,3.9-3.2&#10;&#9;&#9;&#9;&#9;l38.8-178.2C1126.3,356.6,1125.2,355.2,1123.4,355.2z" style="fill: rgb(239, 232, 225);" transform="matrix(1, 0, 0, 1, 0, -2.842170943040401e-14)"/><path class="st5" d="M1022.1,197.9l9-3.1c1.7-0.6,3.8,0.2,4.7,1.8l94.1,156.2c0.9,1.5,0.3,3.3-1.3,3.8l-9,3.1&#10;&#9;&#9;&#9;&#9;c-1.7,0.6-3.8-0.2-4.7-1.8l-94.1-156.2C1019.8,200.2,1020.4,198.5,1022.1,197.9z" style="fill: rgb(239, 232, 225);" transform="matrix(1, 0, 0, 1, 0, -2.842170943040401e-14)"/><path d="M 977.100025 279.600006 A 21.700001 21.700001 0 0 1 955.400024 301.300007 A 21.700001 21.700001 0 0 1 933.700024 279.600006 A 21.700001 21.700001 0 0 1 955.400024 257.900005 A 21.700001 21.700001 0 0 1 977.100025 279.600006 Z" class="st9" style="fill: rgb(249, 187, 35);" transform="matrix(1, 0, 0, 1, 0, -2.842170943040401e-14)"/><path class="st5" d="M1028.2,186.3l-30.4,21.6l42,59.1l30.4-21.6c7.8-5.5,9.6-16.4,4.1-24.1l-22-30.9&#10;&#9;&#9;&#9;&#9;&#9;C1046.8,182.6,1035.9,180.8,1028.2,186.3z" style="fill: rgb(239, 232, 225);" transform="matrix(1, 0, 0, 1, 0, -2.842170943040401e-14)"/><path class="st5" d="M936.4,221.5l61.4-13.5l42,59l-32.9,53.6c-4.8,7.8-16.1,8.2-21.4,0.7l-56.8-79.8&#10;&#9;&#9;&#9;&#9;&#9;C923.3,234,927.4,223.4,936.4,221.5z" style="fill: rgb(239, 232, 225);" transform="matrix(1, 0, 0, 1, 0, -2.842170943040401e-14)"/><path class="st7" d="M1041.4,192.2l-27.5,19.6c-0.9,0.6-1.1,1.9-0.5,2.8l2.6,3.6c0.6,0.9,1.9,1.1,2.8,0.5l27.5-19.6&#10;&#9;&#9;&#9;&#9;&#9;c0.9-0.6,1.1-1.9,0.5-2.8l-2.6-3.6C1043.5,191.7,1042.3,191.5,1041.4,192.2z" style="fill: rgb(219, 206, 195);" transform="matrix(1, 0, 0, 1, 0, -2.842170943040401e-14)"/><path class="st7" d="M1052.6,208l-27.5,19.6c-0.9,0.6-1.1,1.9-0.5,2.8l2.6,3.6c0.6,0.9,1.9,1.1,2.8,0.5l27.5-19.6&#10;&#9;&#9;&#9;&#9;&#9;c0.9-0.6,1.1-1.9,0.5-2.8l-2.6-3.6C1054.7,207.5,1053.5,207.3,1052.6,208z" style="fill: rgb(219, 206, 195);" transform="matrix(1, 0, 0, 1, 0, -2.842170943040401e-14)"/><path class="st7" d="M1063.1,222.7l-27.5,19.6c-0.9,0.6-1.1,1.9-0.5,2.8l2.6,3.6c0.6,0.9,1.9,1.1,2.8,0.5l27.5-19.6&#10;&#9;&#9;&#9;&#9;&#9;c0.9-0.6,1.1-1.9,0.5-2.8l-2.6-3.6C1065.2,222.3,1064,222.1,1063.1,222.7z" style="fill: rgb(219, 206, 195);" transform="matrix(1, 0, 0, 1, 0, -2.842170943040401e-14)"/><path d="M 1155.600025 352.399994 A 32.200001 32.200001 0 0 1 1123.400024 384.599995 A 32.200001 32.200001 0 0 1 1091.200024 352.399994 A 32.200001 32.200001 0 0 1 1123.400024 320.199993 A 32.200001 32.200001 0 0 1 1155.600025 352.399994 Z" class="st5" style="fill: rgb(239, 232, 225);" transform="matrix(1, 0, 0, 1, 0, -2.842170943040401e-14)"/><path d="M 1140.100025 352.399994 A 16.700001 16.700001 0 0 1 1123.400024 369.099995 A 16.700001 16.700001 0 0 1 1106.700024 352.399994 A 16.700001 16.700001 0 0 1 1123.400024 335.699993 A 16.700001 16.700001 0 0 1 1140.100025 352.399994 Z" class="st7" style="fill: rgb(219, 206, 195);" transform="matrix(1, 0, 0, 1, 0, -2.842170943040401e-14)"/><path class="st11" d="M1187.8,628.6v108c-0.5,0.2-1.1,0.4-1.7,0.4h-103.2c-5,0-9.1,4.1-9.1,9.1v7c0,5,4.1,9.1,9.1,9.1h97.3&#10;&#9;&#9;&#9;&#9;c-2.1,1.2-4.6,1.9-7.2,1.9h-92.9c-7.2,0-13.2-5.2-14.5-12c-0.2-0.9-0.3-1.9-0.3-2.8V628.6c0-8.1,6.7-14.8,14.8-14.8h92.9&#10;&#9;&#9;&#9;&#9;C1181.1,613.8,1187.8,620.5,1187.8,628.6z" style="fill: rgb(252, 73, 73);" transform="matrix(1, 0, 0, 1, 0, -2.842170943040401e-14)"/><path class="st15" d="M1189,763.5c0.7,0.7,1.2,1.8,1.2,2.9c0,2.3-1.8,4.1-4.1,4.1h-103.2c-9.5,0-17.3-7.8-17.3-17.3v-7&#10;&#9;&#9;&#9;&#9;&#9;c0-9.5,7.8-17.3,17.3-17.3h103.2c0.6,0,1.1,0.1,1.7,0.4c0.5,0.2,0.9,0.5,1.2,0.8c0.7,0.7,1.2,1.8,1.2,2.9c0,1.7-1,3.1-2.4,3.7&#10;&#9;&#9;&#9;&#9;&#9;c-0.5,0.2-1.1,0.4-1.7,0.4h-103.2c-5,0-9.1,4.1-9.1,9.1v7c0,5,4.1,9.1,9.1,9.1h103.2C1187.2,762.3,1188.2,762.8,1189,763.5z" style="fill: rgb(219, 44, 44);" transform="matrix(1, 0, 0, 1, 0, -2.842170943040401e-14)"/><path class="st0" d="M1182,737v25.3h-99.1c-5,0-9.1-4.1-9.1-9.1v-7c0-5,4.1-9.1,9.1-9.1H1182z" style="fill: rgb(255, 255, 255);" transform="matrix(1, 0, 0, 1, 0, -2.842170943040401e-14)"/><path class="st7" d="M1182,742.4v3.3h-94.2c-0.4,0-0.9-0.2-1.2-0.5s-0.5-0.7-0.5-1.2c0-0.9,0.7-1.6,1.6-1.6H1182z" style="fill: rgb(219, 206, 195);" transform="matrix(1, 0, 0, 1, 0, -2.842170943040401e-14)"/><path class="st7" d="M1182,753.5v3.3h-94.2c-0.4,0-0.9-0.2-1.2-0.5c-0.3-0.3-0.5-0.7-0.5-1.2c0-0.9,0.7-1.6,1.6-1.6H1182z" style="fill: rgb(219, 206, 195);" transform="matrix(1, 0, 0, 1, 0, -2.842170943040401e-14)"/><path class="st0" d="M1166.2,630.3h-74.6c-1.2,0-2.2,1-2.2,2.2v34.8c0,1.2,1,2.2,2.2,2.2h74.6c1.2,0,2.2-1,2.2-2.2v-34.8&#10;&#9;&#9;&#9;&#9;C1168.4,631.3,1167.4,630.3,1166.2,630.3z" style="fill: rgb(255, 255, 255);" transform="matrix(1, 0, 0, 1, 0, -2.842170943040401e-14)"/><path d="M 154 241.10000610351562 L 163.10000610351562 257.79998779296875 L 179.6999969482422 266.79998779296875 L 163.10000610351562 275.8999938964844 L 154 292.6000061035156 L 144.89999389648438 275.8999938964844 L 128.1999969482422 266.79998779296875 L 144.89999389648438 257.79998779296875 Z" class="st9" style="fill: rgb(249, 187, 35);" transform="matrix(1, 0, 0, 1, 0, -1.4210854715202004e-14)"/><path d="M 1137.5 125.0999984741211 L 1148.5999755859375 145.39999389648438 L 1168.9000244140625 156.5 L 1148.5999755859375 167.60000610351562 L 1137.5 187.89999389648438 L 1126.4000244140625 167.60000610351562 L 1106.0999755859375 156.5 L 1126.4000244140625 145.39999389648438 Z" class="st8" style="fill: rgb(119, 192, 237);" transform="matrix(1, 0, 0, 1, 0, -1.4210854715202004e-14)"/><path d="M 1283.300048828125 246 L 1293 263.70001220703125 L 1310.699951171875 273.29998779296875 L 1293 283 L 1283.300048828125 300.70001220703125 L 1273.699951171875 283 L 1256 273.29998779296875 L 1273.699951171875 263.70001220703125 Z" class="st9" style="fill: rgb(249, 187, 35);" transform="matrix(1, 0, 0, 1, 0, -1.4210854715202004e-14)"/><path d="M 1211 387 L 1221.0999755859375 405.5 L 1239.5999755859375 415.5 L 1221.0999755859375 425.6000061035156 L 1211 444.1000061035156 L 1200.9000244140625 425.6000061035156 L 1182.5 415.5 L 1200.9000244140625 405.5 Z" class="st9" style="fill: rgb(249, 187, 35);" transform="matrix(1, 0, 0, 1, 0, -1.4210854715202004e-14)"/><path d="M 1289.4000244140625 634.0999755859375 L 1299.199951171875 652 L 1317 661.7000122070312 L 1299.199951171875 671.5 L 1289.4000244140625 689.2999877929688 L 1279.5999755859375 671.5 L 1261.800048828125 661.7000122070312 L 1279.5999755859375 652 Z" class="st8" style="fill: rgb(119, 192, 237);" transform="matrix(1, 0, 0, 1, 0, -1.4210854715202004e-14)"/><path d="M 109.9000015258789 434.6000061035156 L 119.5999984741211 452.8999938964844 L 137.5 463 L 119.30000305175781 472.6000061035156 L 109.0999984741211 490.6000061035156 L 99.5 472.29998779296875 L 81.5 462.20001220703125 L 99.80000305175781 452.6000061035156 Z" class="st8" style="fill: rgb(119, 192, 237);" transform="matrix(1, 0, 0, 1, 0, -1.4210854715202004e-14)"/><path d="M 768.2000122070312 110.0999984741211 L 778.0999755859375 128.3000030517578 L 796.2000122070312 138.1999969482422 L 778.0999755859375 148.10000610351562 L 768.2000122070312 166.3000030517578 L 758.2000122070312 148.10000610351562 L 740.0999755859375 138.1999969482422 L 758.2000122070312 128.3000030517578 Z" class="st9" style="fill: rgb(249, 187, 35);" transform="matrix(1, 0, 0, 1, 0, -1.4210854715202004e-14)"/><path d="M 430.8999938964844 103.19999694824219 L 440.6000061035156 120.80000305175781 L 458.20001220703125 130.5 L 440.6000061035156 140.10000610351562 L 430.8999938964844 157.8000030517578 L 421.29998779296875 140.10000610351562 L 403.6000061035156 130.5 L 421.29998779296875 120.80000305175781 Z" class="st8" style="fill: rgb(119, 192, 237);" transform="matrix(1, 0, 0, 1, 0, -1.4210854715202004e-14)"/><path d="M 360.79998779296875 238.10000610351562 L 370.70001220703125 256.29998779296875 L 388.79998779296875 266.20001220703125 L 370.70001220703125 276.1000061035156 L 360.79998779296875 294.29998779296875 L 350.79998779296875 276.1000061035156 L 332.70001220703125 266.20001220703125 L 350.79998779296875 256.29998779296875 Z" class="st9" style="fill: rgb(249, 187, 35);" transform="matrix(1, 0, 0, 1, 0, -1.4210854715202004e-14)"/><path d="M 103.5 645.9000244140625 L 112.9000015258789 663.2000122070312 L 130.10000610351562 672.5999755859375 L 112.9000015258789 682 L 103.5 699.2000122070312 L 94 682 L 76.80000305175781 672.5999755859375 L 94 663.2000122070312 Z" class="st9" style="fill: rgb(249, 187, 35);" transform="matrix(1, 0, 0, 1, 0, -1.4210854715202004e-14)"/>
</svg>